<svg width="30" height="30" viewBox="0 0 30 30" fill="none" xmlns="http://www.w3.org/2000/svg">
<g clip-path="url(#clip0_245_195)">
<path d="M18.6243 7.66018V8.49361H22.1055C23.4076 8.49361 24.4669 9.55296 24.4669 10.8551C24.4669 10.8858 24.4663 10.9167 24.4652 10.9475C24.4186 12.1723 23.4227 13.1682 22.1979 13.2147C20.9964 13.2614 19.9836 12.4049 19.781 11.2718H20.9943V10.4383H18.9107V10.8551C18.9107 12.6166 20.3439 14.0499 22.1055 14.0499C22.1467 14.0499 22.1881 14.0491 22.2295 14.0475C23.8872 13.9846 25.235 12.6368 25.298 10.9789C25.2995 10.9375 25.3004 10.8962 25.3004 10.8551C25.3004 9.09346 23.8672 7.66023 22.1055 7.66023L18.6243 7.66018ZM7.97977 14.0475C8.02112 14.049 8.06251 14.0498 8.10389 14.0498C9.86554 14.0498 11.2987 12.6166 11.2987 10.855V10.4383H9.21513V11.2717H10.4284C10.231 12.3757 9.26381 13.2164 8.10389 13.2164C8.07322 13.2164 8.0425 13.2158 8.01144 13.2146C6.78668 13.1681 5.79079 12.1722 5.74428 10.9476C5.74311 10.9168 5.74252 10.8859 5.7425 10.855C5.7425 9.5529 6.80179 8.49361 8.10389 8.49361H17.7909V7.66018H8.10389C6.34224 7.66018 4.90907 9.09335 4.90907 10.855C4.90907 10.8961 4.90991 10.9373 4.91146 10.979C4.97441 12.6367 6.32224 13.9845 7.97977 14.0475ZM10.5764 1.95651L11.2982 1.53979L12.6872 3.94563L11.9655 4.36235L10.5764 1.95651ZM7.67856 5.15989L8.09528 4.43813L10.5011 5.82719L10.0844 6.54894L7.67856 5.15989ZM19.7078 5.82691L22.1136 4.43786L22.5303 5.15961L20.1245 6.54866L19.7078 5.82691ZM17.5218 3.94608L18.9109 1.54024L19.6326 1.95695L18.2436 4.36279L17.5218 3.94608ZM28.5785 26.5513V23.823L23.7219 23.203L23.6163 24.0297L27.7451 24.5568V26.5513H19.8831V27.3847H28.4674V28.2181H7.77052V29.0516H29.3008V26.5513H28.5785Z" fill="#323232"/>
<path d="M1.74204 27.3847H19.0496V26.5513H15.5214V25.6784C15.5214 24.3761 16.5784 23.3166 17.8777 23.3166C17.9784 23.3166 18.0807 23.3231 18.1819 23.336L22.7897 23.9243L22.8952 23.0976L22.7445 23.0783V14.8555H21.9111V22.9719L20.7443 22.8229V16.189C20.7443 15.3464 20.0588 14.661 19.2163 14.661C18.3738 14.661 17.6884 15.3464 17.6884 16.189V22.489C17.3248 22.5102 16.9677 22.594 16.6327 22.7367V16.189C16.6327 15.3464 15.9472 14.661 15.1047 14.661C14.2622 14.661 13.5768 15.3464 13.5768 16.189V22.7367C13.2418 22.594 12.8846 22.5102 12.5211 22.489V16.189C12.5211 15.3464 11.8356 14.661 10.9931 14.661C10.1506 14.661 9.46517 15.3464 9.46517 16.189V22.8229L8.29836 22.9719V14.8555H7.46493V23.0782L1.63091 23.823V26.5513H0.908607V29.0516H6.93709V28.2182H1.74204V27.3847ZM18.5218 16.189C18.5218 15.806 18.8333 15.4944 19.2163 15.4944C19.5993 15.4944 19.9108 15.806 19.9108 16.189V22.7165L18.5218 22.5392V16.189ZM14.4102 16.189C14.4102 15.806 14.7217 15.4944 15.1047 15.4944C15.4877 15.4944 15.7992 15.806 15.7992 16.189V23.257C15.5213 23.4965 15.2864 23.7818 15.1047 24.1005C14.923 23.7818 14.6881 23.4965 14.4102 23.257V16.189ZM10.2986 16.189C10.2986 15.806 10.6101 15.4944 10.9931 15.4944C11.3761 15.4944 11.6876 15.806 11.6876 16.189V22.5392L10.2986 22.7165V16.189ZM2.46435 24.5568L12.0275 23.336C12.1284 23.3231 12.23 23.3166 12.3317 23.3165C13.631 23.3165 14.688 24.376 14.688 25.6783V26.5513H2.46435V24.5568ZM14.688 0.631592H15.5214V3.4097H14.688V0.631592ZM16.3549 10.4383H17.1883V11.2717H16.3549V10.4383ZM13.0211 10.4383H13.8546V11.2717H13.0211V10.4383ZM14.688 10.4383H15.5214V11.2717H14.688V10.4383ZM21.9389 10.4383H22.7723V11.2717H21.9389V10.4383ZM7.43715 10.4383H8.27058V11.2717H7.43715V10.4383Z" fill="#323232"/>
</g>
<defs>
<clipPath id="clip0_245_195">
<rect width="28.42" height="28.42" fill="white" transform="translate(0.894714 0.631592)"/>
</clipPath>
</defs>
</svg>
