<svg width="30" height="30" viewBox="0 0 30 30" fill="none" xmlns="http://www.w3.org/2000/svg">
<path d="M9.77595 3.29596H10.6641V4.18408H9.77595V3.29596ZM11.5522 3.29596H15.1047V4.18408H11.5522V3.29596ZM14.2166 19.2822H12.4403C12.087 19.2822 11.7482 19.4226 11.4983 19.6724C11.2485 19.9222 11.1081 20.2611 11.1081 20.6144C11.1081 20.9677 11.2485 21.3066 11.4983 21.5564C11.7482 21.8062 12.087 21.9466 12.4403 21.9466H14.2166C14.5699 21.9466 14.9087 21.8062 15.1586 21.5564C15.4084 21.3066 15.5488 20.9677 15.5488 20.6144C15.5488 20.2611 15.4084 19.9222 15.1586 19.6724C14.9087 19.4226 14.5699 19.2822 14.2166 19.2822ZM14.2166 21.0585H12.4403C12.3226 21.0585 12.2096 21.0117 12.1263 20.9284C12.043 20.8451 11.9963 20.7322 11.9963 20.6144C11.9963 20.4966 12.043 20.3837 12.1263 20.3004C12.2096 20.2171 12.3226 20.1703 12.4403 20.1703H14.2166C14.3343 20.1703 14.4473 20.2171 14.5306 20.3004C14.6139 20.3837 14.6606 20.4966 14.6606 20.6144C14.6606 20.7322 14.6139 20.8451 14.5306 20.9284C14.4473 21.0117 14.3343 21.0585 14.2166 21.0585ZM2.67095 13.0653H3.55907V7.92043L4.13325 8.4946L4.76115 7.86669L3.42896 6.53451C3.34569 6.45126 3.23276 6.40449 3.11501 6.40449C2.99726 6.40449 2.88433 6.45126 2.80106 6.53451L1.46887 7.86669L2.09678 8.4946L2.67095 7.92043V13.0653ZM23.0978 7.92043V13.0653H23.9859V7.92043L24.5601 8.4946L25.188 7.86669L23.8558 6.53451C23.7726 6.45126 23.6596 6.40449 23.5419 6.40449C23.4241 6.40449 23.3112 6.45126 23.2279 6.53451L21.8957 7.86669L22.5237 8.4946L23.0978 7.92043Z" fill="#323232"/>
<path d="M25.7622 21.0585C25.3441 21.0568 24.9393 21.2049 24.621 21.4759C24.4627 21.2134 24.2393 20.9962 23.9725 20.8453C23.7056 20.6943 23.4044 20.6148 23.0978 20.6144C22.6798 20.6127 22.2749 20.7608 21.9566 21.0318C21.7168 20.6323 21.329 20.3435 20.8775 20.2281V4.62815C20.8766 3.80403 20.5488 3.01393 19.966 2.43119C19.3833 1.84845 18.5932 1.52065 17.7691 1.51971H8.88783C8.06371 1.52065 7.27362 1.84845 6.69088 2.43119C6.10813 3.01393 5.78034 3.80403 5.7794 4.62815V12.7545C5.49711 12.8865 5.26949 13.1126 5.13551 13.3939L3.11946 17.768C2.82537 18.4089 2.67242 19.1055 2.67096 19.8106V28.1635H3.55908V19.8106C3.56058 19.2341 3.68629 18.6646 3.92766 18.141L5.7794 14.1222V20.6144C5.78001 20.9767 5.84465 21.336 5.97034 21.6757L5.53072 22.4351L6.29895 22.8791L8.96333 18.2653C9.02105 18.1638 9.09823 18.0747 9.19042 18.0031C9.28262 17.9315 9.38804 17.8787 9.50064 17.8479C9.72868 17.7896 9.97043 17.8214 10.1756 17.9367C10.3796 18.0554 10.5282 18.2501 10.589 18.4781C10.6497 18.7062 10.6177 18.949 10.4998 19.1534L8.5015 22.6127C8.46289 22.6821 8.443 22.7603 8.44378 22.8397C8.44456 22.9192 8.46598 22.997 8.50594 23.0656L9.45623 24.6465C9.66452 24.9908 9.77505 25.3853 9.77596 25.7877V28.159H10.6641V25.7877C10.6631 25.2245 10.5096 24.6721 10.22 24.1891L9.94026 23.7228H12.6801C12.5593 24.1787 12.6231 24.6637 12.8578 25.0728L14.7717 28.3855L15.5399 27.9414L13.626 24.6287C13.537 24.4765 13.4953 24.3013 13.5062 24.1253C13.5171 23.9493 13.5802 23.7806 13.6873 23.6406C13.7945 23.5006 13.9409 23.3956 14.1079 23.3391C14.2749 23.2826 14.455 23.277 14.6251 23.3232C14.7383 23.3527 14.8443 23.4049 14.9367 23.4767C15.0291 23.5484 15.1059 23.6382 15.1624 23.7406L16.0506 25.2771C16.1005 25.3613 16.1763 25.4272 16.2668 25.4648C16.3572 25.5024 16.4574 25.5098 16.5524 25.4858C16.647 25.4603 16.7305 25.4042 16.79 25.3263C16.8494 25.2484 16.8814 25.153 16.881 25.055V16.6178C16.881 16.3823 16.9745 16.1564 17.1411 15.9898C17.3076 15.8233 17.5335 15.7297 17.7691 15.7297C18.0046 15.7297 18.2305 15.8233 18.3971 15.9898C18.5636 16.1564 18.6572 16.3823 18.6572 16.6178V23.7228C18.6572 23.8406 18.704 23.9536 18.7873 24.0368C18.8705 24.1201 18.9835 24.1669 19.1013 24.1669C19.219 24.1669 19.332 24.1201 19.4153 24.0368C19.4985 23.9536 19.5453 23.8406 19.5453 23.7228V21.9466C19.5453 21.711 19.6389 21.4851 19.8055 21.3186C19.972 21.152 20.1979 21.0585 20.4335 21.0585C20.669 21.0585 20.8949 21.152 21.0615 21.3186C21.228 21.4851 21.3216 21.711 21.3216 21.9466V23.7228C21.3216 23.8406 21.3684 23.9536 21.4516 24.0368C21.5349 24.1201 21.6479 24.1669 21.7656 24.1669C21.8834 24.1669 21.9964 24.1201 22.0796 24.0368C22.1629 23.9536 22.2097 23.8406 22.2097 23.7228V22.3907C22.2097 22.1551 22.3033 21.9292 22.4698 21.7627C22.6364 21.5961 22.8623 21.5025 23.0978 21.5025C23.3334 21.5025 23.5593 21.5961 23.7258 21.7627C23.8924 21.9292 23.986 22.1551 23.986 22.3907V23.7228C23.986 23.8406 24.0327 23.9536 24.116 24.0368C24.1993 24.1201 24.3122 24.1669 24.43 24.1669C24.5478 24.1669 24.6607 24.1201 24.744 24.0368C24.8273 23.9536 24.8741 23.8406 24.8741 23.7228V22.8347C24.8741 22.5992 24.9677 22.3733 25.1342 22.2067C25.3008 22.0402 25.5267 21.9466 25.7622 21.9466C25.9978 21.9466 26.2237 22.0402 26.3902 22.2067C26.5568 22.3733 26.6503 22.5992 26.6503 22.8347V28.1635H27.5385V22.8347C27.5385 22.3636 27.3513 21.9118 27.0182 21.5787C26.6851 21.2456 26.2333 21.0585 25.7622 21.0585ZM19.9894 20.2281C19.8338 20.2683 19.6844 20.3295 19.5453 20.4101V16.6178C19.5453 16.1467 19.3582 15.695 19.0251 15.3618C18.692 15.0287 18.2402 14.8416 17.7691 14.8416C17.298 14.8416 16.8462 15.0287 16.5131 15.3618C16.18 15.695 15.9928 16.1467 15.9928 16.6178V22.8347H15.5443C15.3444 22.6633 15.1095 22.5376 14.856 22.4661C14.4002 22.3456 13.9152 22.4094 13.5061 22.6438C13.4134 22.6998 13.3258 22.7637 13.2441 22.8347H9.40739L9.40295 22.8303L11.2725 19.5975C11.508 19.1894 11.5718 18.7045 11.4498 18.2494C11.3278 17.7942 11.03 17.4062 10.6219 17.1707C10.2138 16.9352 9.72888 16.8714 9.27376 16.9934C8.81865 17.1154 8.43064 17.4132 8.1951 17.8212L6.66752 20.4634V4.62815C6.66752 4.03929 6.90145 3.47454 7.31784 3.05815C7.73423 2.64176 8.29897 2.40784 8.88783 2.40784H17.7691C18.3579 2.40784 18.9227 2.64176 19.3391 3.05815C19.7555 3.47454 19.9894 4.03929 19.9894 4.62815V20.2281Z" fill="#323232"/>
<path d="M12.8844 9.95691H13.7725C13.8903 9.95691 14.0032 10.0037 14.0865 10.087C14.1698 10.1703 14.2166 10.2832 14.2166 10.401H15.1047C15.1047 10.0477 14.9643 9.70881 14.7145 9.45898C14.4647 9.20914 14.1258 9.06879 13.7725 9.06879V8.62473H12.8844V9.06879C12.5311 9.06879 12.1922 9.20914 11.9424 9.45898C11.6925 9.70881 11.5522 10.0477 11.5522 10.401C11.5522 10.7543 11.6925 11.0931 11.9424 11.343C12.1922 11.5928 12.5311 11.7332 12.8844 11.7332H13.7725C13.8903 11.7332 14.0032 11.7799 14.0865 11.8632C14.1698 11.9465 14.2166 12.0595 14.2166 12.1772C14.2166 12.295 14.1698 12.4079 14.0865 12.4912C14.0032 12.5745 13.8903 12.6213 13.7725 12.6213H12.8844C12.7666 12.6213 12.6537 12.5745 12.5704 12.4912C12.4871 12.4079 12.4403 12.295 12.4403 12.1772H11.5522C11.5522 12.5305 11.6925 12.8694 11.9424 13.1192C12.1922 13.3691 12.5311 13.5094 12.8844 13.5094V13.9535H13.7725V13.5094C14.1258 13.5094 14.4647 13.3691 14.7145 13.1192C14.9643 12.8694 15.1047 12.5305 15.1047 12.1772C15.1047 11.8239 14.9643 11.4851 14.7145 11.2352C14.4647 10.9854 14.1258 10.845 13.7725 10.845H12.8844C12.7666 10.845 12.6537 10.7983 12.5704 10.715C12.4871 10.6317 12.4403 10.5187 12.4403 10.401C12.4403 10.2832 12.4871 10.1703 12.5704 10.087C12.6537 10.0037 12.7666 9.95691 12.8844 9.95691Z" fill="#323232"/>
<path d="M13.3285 6.84845C12.4502 6.84845 11.5916 7.10889 10.8614 7.59683C10.1311 8.08477 9.56196 8.7783 9.22586 9.58972C8.88976 10.4011 8.80182 11.294 8.97316 12.1554C9.1445 13.0168 9.56743 13.808 10.1885 14.4291C10.8095 15.0501 11.6007 15.473 12.4621 15.6444C13.3235 15.8157 14.2164 15.7278 15.0278 15.3917C15.8392 15.0556 16.5328 14.4864 17.0207 13.7562C17.5086 13.0259 17.7691 12.1673 17.7691 11.2891C17.7678 10.1117 17.2995 8.98301 16.467 8.15051C15.6345 7.31801 14.5058 6.84974 13.3285 6.84845ZM13.3285 14.8416C12.6258 14.8416 11.939 14.6332 11.3548 14.2429C10.7706 13.8525 10.3153 13.2977 10.0464 12.6486C9.7775 11.9994 9.70715 11.2851 9.84422 10.596C9.98129 9.9069 10.3196 9.2739 10.8165 8.77708C11.3133 8.28025 11.9463 7.94191 12.6354 7.80483C13.3245 7.66776 14.0388 7.73811 14.6879 8.00699C15.3371 8.27587 15.8919 8.73121 16.2823 9.31541C16.6726 9.89962 16.881 10.5865 16.881 11.2891C16.8799 12.2309 16.5053 13.1339 15.8393 13.7999C15.1733 14.4659 14.2703 14.8405 13.3285 14.8416ZM23.0978 13.9534H23.986V14.8416H23.0978V13.9534ZM23.0978 15.7297H23.986V16.6178H23.0978V15.7297ZM2.67096 13.9534H3.55908V14.8416H2.67096V13.9534Z" fill="#323232"/>
</svg>
