<svg width="23" height="23" viewBox="0 0 23 23" fill="none" xmlns="http://www.w3.org/2000/svg">
<path fill-rule="evenodd" clip-rule="evenodd" d="M3.27176 3.27176C5.18492 1.36023 7.94458 0.405273 11.3306 0.405273C14.7167 0.405273 17.4763 1.36023 19.3895 3.27176C21.301 5.18491 22.256 7.94458 22.256 11.3306C22.256 14.7167 21.301 17.4763 19.3895 19.3895C17.4763 21.301 14.7167 22.256 11.3306 22.256C7.94458 22.256 5.18492 21.301 3.27176 19.3895C1.36023 17.4763 0.405273 14.7167 0.405273 11.3306C0.405273 7.94458 1.36023 5.18491 3.27176 3.27176ZM15.649 8.78138C15.6605 8.54614 15.6228 8.31108 15.538 8.09131C15.4533 7.87155 15.3236 7.67194 15.1571 7.50532C14.9906 7.3387 14.7912 7.20876 14.5715 7.12385C14.3518 7.03893 14.1168 7.00093 13.8815 7.01228C11.3306 7.12396 8.65351 8.21326 6.17386 9.67645C5.96532 9.79915 5.79947 9.98291 5.69874 10.2029C5.598 10.4229 5.56724 10.6685 5.6106 10.9066C5.64838 11.1431 5.75164 11.3642 5.9087 11.545C6.06575 11.7258 6.27031 11.859 6.4992 11.9295C7.04142 12.0962 7.62572 12.3002 8.14528 12.5365C8.67294 12.776 9.10348 13.035 9.36569 13.2972C9.62789 13.5594 9.88525 13.9883 10.1264 14.516C10.3627 15.0372 10.5667 15.6198 10.7334 16.1637C10.8034 16.3924 10.9359 16.597 11.1161 16.7544C11.2964 16.9117 11.517 17.0154 11.7531 17.0539C11.992 17.0977 12.2385 17.0668 12.4592 16.9654C12.6799 16.864 12.864 16.6971 12.9864 16.4874C14.448 14.011 15.5389 11.3322 15.649 8.78138Z" fill="white"/>
</svg>
