<svg width="23" height="24" viewBox="0 0 23 24" fill="none" xmlns="http://www.w3.org/2000/svg">
<g clip-path="url(#clip0_274_9001)">
<path d="M16.4329 18.2065C16.0416 15.5247 14.1508 13.6 11.3949 13.6C8.63696 13.6 6.74613 15.5226 6.35485 18.2065C6.27025 18.7839 6.75459 19.2598 7.33834 19.2598H15.4494C16.0332 19.2598 16.5175 18.7839 16.4329 18.2065Z" fill="white"/>
<path d="M11.3928 12.1766C13.5353 12.1766 14.7409 10.9711 14.7409 8.82854C14.7409 6.68603 13.5353 5.48047 11.3928 5.48047C9.25243 5.48047 8.04687 6.68603 8.04687 8.82854C8.04687 10.9711 9.25032 12.1766 11.3928 12.1766Z" fill="white"/>
<path d="M8.45201 18.3263C8.12417 16.2681 6.53994 14.791 4.23093 14.791C1.92014 14.791 0.335909 16.2665 0.00807476 18.3263C-0.0628082 18.7695 0.342998 19.1347 0.83209 19.1347H7.628C8.11709 19.1347 8.52289 18.7695 8.45201 18.3263Z" fill="white"/>
<path d="M4.22916 13.6986C6.02427 13.6986 7.03435 12.7734 7.03435 11.1291C7.03435 9.48479 6.02427 8.55957 4.22916 8.55957C2.43582 8.55957 1.42574 9.48479 1.42574 11.1291C1.42574 12.7734 2.43405 13.6986 4.22916 13.6986Z" fill="white"/>
<path d="M22.7792 18.3263C22.4513 16.2681 20.8671 14.791 18.5581 14.791C16.2473 14.791 14.6631 16.2665 14.3352 18.3263C14.2643 18.7695 14.6701 19.1347 15.1592 19.1347H21.9551C22.4442 19.1347 22.85 18.7695 22.7792 18.3263Z" fill="white"/>
<path d="M18.5563 13.6986C20.3514 13.6986 21.3615 12.7734 21.3615 11.1291C21.3615 9.48479 20.3514 8.55957 18.5563 8.55957C16.763 8.55957 15.7529 9.48479 15.7529 11.1291C15.7529 12.7734 16.7612 13.6986 18.5563 13.6986Z" fill="white"/>
</g>
<defs>
<clipPath id="clip0_274_9001">
<rect width="22.6554" height="22.6554" fill="white" transform="translate(0 0.625977)"/>
</clipPath>
</defs>
</svg>
