<svg width="23" height="23" viewBox="0 0 23 23" fill="none" xmlns="http://www.w3.org/2000/svg">
<path fill-rule="evenodd" clip-rule="evenodd" d="M5.33212 0.462891C4.57486 0.475242 3.81987 0.549388 3.07467 0.68459C2.32866 0.809195 1.73476 1.29467 1.33344 1.88533C0.911116 2.53286 0.664101 3.27892 0.616555 4.05054C0.532183 5.10523 0.486302 6.16265 0.479004 7.22068C0.479004 8.30976 0.543734 9.37295 0.616555 10.3892C0.67643 11.1983 0.927258 11.9589 1.33344 12.5544C1.73476 13.1467 2.32866 13.6322 3.07467 13.7552C3.77537 13.8701 4.53918 13.9769 5.33212 13.9769C6.12506 13.9769 6.88887 13.8701 7.59119 13.7552C8.33558 13.6322 8.92948 13.1467 9.33242 12.5544C9.75485 11.9071 10.0014 11.1608 10.0477 10.3892C10.1322 9.33507 10.1781 8.27818 10.1852 7.22068C10.1852 6.12998 10.1221 5.06842 10.0477 4.05054C10.0014 3.27893 9.75485 2.5327 9.33242 1.88533C8.92948 1.29305 8.3372 0.807577 7.58957 0.68459C6.84437 0.549423 6.08938 0.475278 5.33212 0.462891ZM17.3152 22.1927C18.1082 22.1927 18.8736 22.0859 19.5775 21.971C20.3235 21.8496 20.9191 21.3641 21.3204 20.7735C21.7266 20.1747 21.9806 19.4174 22.0389 18.6067C22.1133 17.5904 22.1781 16.5288 22.1781 15.4397C22.1781 14.3507 22.1133 13.2891 22.0389 12.2728C21.9926 11.5007 21.7448 10.7542 21.3204 10.1076C20.9191 9.51535 20.3235 9.02988 19.5775 8.90851C18.8307 8.77337 18.0741 8.69923 17.3152 8.68681C16.5207 8.68681 15.7552 8.79362 15.0529 8.90851C14.3053 9.02988 13.7098 9.51535 13.3085 10.106C12.8843 10.7534 12.6367 11.5003 12.59 12.2728C12.5055 13.3264 12.4596 14.3828 12.4524 15.4397C12.4524 16.5288 12.5171 17.5904 12.59 18.6067C12.6498 19.4158 12.9023 20.1764 13.3085 20.7719C13.7114 21.3641 14.3053 21.8496 15.0529 21.971C15.7998 22.1061 16.5564 22.1802 17.3152 22.1927ZM5.33374 16.2748C4.58449 16.2748 3.85466 16.312 3.15882 16.3524C2.62415 16.3777 2.10083 16.5156 1.6231 16.757C1.21207 16.9755 0.750869 17.359 0.632737 17.9496C0.539322 18.3718 0.488363 18.8022 0.480622 19.2345C0.480622 19.699 0.55668 20.1391 0.632737 20.5178C0.750869 21.1085 1.21207 21.492 1.6231 21.7121C2.06003 21.9451 2.59891 22.081 3.16044 22.115C3.85628 22.1555 4.58449 22.1927 5.33374 22.1927C6.08299 22.1927 6.81282 22.1555 7.50866 22.115C8.06857 22.0826 8.60745 21.9451 9.04438 21.7104C9.45541 21.492 9.91823 21.1085 10.0364 20.5178C10.1124 20.1391 10.1869 19.699 10.1869 19.2345C10.1869 18.7685 10.1124 18.3283 10.0364 17.9496C9.91661 17.359 9.45541 16.9755 9.04438 16.7554C8.56662 16.5145 8.04319 16.3777 7.50866 16.3541C6.81282 16.312 6.08461 16.2748 5.33374 16.2748ZM17.3152 6.37919C18.0661 6.37919 18.7975 6.34359 19.495 6.30314C20.0549 6.27077 20.5954 6.1316 21.0323 5.89858C21.4434 5.68173 21.9062 5.29659 22.0259 4.70593C22.1192 4.28375 22.1702 3.85333 22.1781 3.42104C22.1701 2.9893 22.1191 2.55942 22.0259 2.13777C21.9062 1.5455 21.4434 1.16197 21.0323 0.943509C20.5541 0.702192 20.0301 0.564866 19.495 0.540566C18.7693 0.493139 18.0424 0.467236 17.3152 0.462891C16.5644 0.462891 15.8329 0.50011 15.1354 0.540566C14.5739 0.572931 14.035 0.710482 13.5981 0.943509C13.1855 1.16197 12.7243 1.5455 12.6045 2.13777C12.5111 2.55939 12.4602 2.98928 12.4524 3.42104C12.4601 3.85334 12.511 4.28379 12.6045 4.70593C12.7243 5.29659 13.1871 5.68173 13.5981 5.90019C14.035 6.1316 14.5739 6.26915 15.1354 6.30314C15.8313 6.34359 16.5644 6.37919 17.3152 6.37919Z" fill="white"/>
</svg>
