<svg width="20" height="20" viewBox="0 0 20 20" fill="none" xmlns="http://www.w3.org/2000/svg">
<path d="M15.7182 10.6394C14.4273 10.6394 13.3758 11.6909 13.3758 12.9818C13.3758 14.2727 14.4273 15.3242 15.7182 15.3242C17.0091 15.3242 18.0606 14.2727 18.0606 12.9818C18.0606 11.6909 17.0091 10.6394 15.7182 10.6394ZM15.7182 14.8727C14.6758 14.8727 13.8303 14.0242 13.8303 12.9849C13.8303 11.9455 14.6788 11.097 15.7182 11.097C16.7576 11.097 17.6061 11.9455 17.6061 12.9849C17.6061 14.0242 16.7606 14.8727 15.7182 14.8727Z" fill="#323232"/>
<path d="M18.1091 15.1788C18.6424 14.6 18.9697 13.8303 18.9697 12.9818C18.9697 11.2636 17.6303 9.85758 15.9455 9.73939V5.29394C15.9455 4.47576 15.2788 3.80909 14.4606 3.80909H9.0697L8.2394 1.87879L9.27273 0.981818L9.73031 2.04545C9.45455 2.27273 9.34546 2.66061 9.49395 3.00606C9.58054 3.20722 9.74339 3.36581 9.94677 3.44705C10.1501 3.52829 10.3774 3.52553 10.5788 3.43939C10.7818 3.35152 10.9364 3.19091 11.0182 2.98788C11.1 2.78182 11.097 2.55758 11.0091 2.35758C10.9212 2.15455 10.7606 2 10.5576 1.91818C10.4242 1.86667 10.2849 1.85152 10.1485 1.8697L9.56667 0.515152C9.55514 0.489018 9.53868 0.465354 9.51819 0.445455C9.51516 0.442425 9.5091 0.439394 9.50607 0.433334C9.48935 0.419154 9.47104 0.406952 9.45152 0.39697C9.44546 0.39394 9.4394 0.390909 9.43334 0.390909C9.41516 0.384849 9.39395 0.381819 9.37273 0.378788C9.36364 0.378788 9.35758 0.375758 9.34849 0.378788H9.33637L4.73031 0.827273C4.68182 0.833334 4.6394 0.851515 4.60304 0.881819L1.10607 3.91515C1.03031 3.97879 1.00607 4.08485 1.04546 4.17576C1.08182 4.26061 1.16364 4.31212 1.25455 4.31212H1.27576L2.94849 4.14848L3.79698 6.12121C3.79395 6.13333 3.79092 6.14545 3.79092 6.15758V18.1303C3.79092 18.9485 4.45758 19.6152 5.27576 19.6152H15.7152C15.8394 19.6152 15.9424 19.5121 15.9424 19.3879V16.2242H15.9576L16.6455 17.9242C16.6788 18.0061 16.7546 18.0606 16.8394 18.0667H16.8546C16.9364 18.0667 17.0091 18.0242 17.0515 17.9545L17.5758 17.0485L18.5818 17.3364C18.6667 17.3606 18.7546 17.3333 18.8121 17.2697C18.8697 17.2061 18.8879 17.1121 18.8546 17.0333L18.1091 15.1788ZM10.103 2.33939C10.1474 2.31986 10.1952 2.30952 10.2436 2.309C10.2921 2.30848 10.3401 2.31779 10.3849 2.33636C10.4758 2.37273 10.5485 2.44242 10.5879 2.53333C10.6273 2.62424 10.6273 2.72424 10.5909 2.81818C10.5546 2.90909 10.4849 2.98182 10.3939 3.02121C10.2061 3.10303 9.98788 3.01515 9.90607 2.82727C9.83031 2.63939 9.91819 2.42121 10.103 2.33939ZM15.4909 5.29394V9.73939C15.1182 9.76667 14.7606 9.85151 14.4303 9.99394V7.06364C14.4303 6.93939 14.3273 6.83636 14.203 6.83636C13.8617 6.83556 13.5346 6.69962 13.2933 6.45827C13.0519 6.21692 12.916 5.88981 12.9152 5.54848C12.9152 5.42424 12.8121 5.32121 12.6879 5.32121H7.52425C8.05455 5.02424 8.55455 4.6697 9.01213 4.26061H14.4576C15.0273 4.26364 15.4909 4.72727 15.4909 5.29394ZM1.94243 3.79394L4.84546 1.27273L8.67273 0.9L5.7697 3.42121L1.94243 3.79394ZM5.88485 3.86667C5.93334 3.86061 5.97576 3.84242 6.01213 3.81212L7.87879 2.19091L8.64849 3.98182C7.4091 5.07273 5.8394 5.74848 4.19395 5.89697L3.42425 4.10606L5.88485 3.86667ZM4.24546 18.1364V6.34242C4.60304 6.30909 4.95758 6.25455 5.30607 6.17576V16.3636C5.30607 16.4909 5.4091 16.5909 5.53637 16.5909C6.24243 16.5939 6.81819 17.1667 6.82122 17.8758C6.82122 18.003 6.92122 18.1061 7.04546 18.1061H13.6606C13.7849 18.1061 13.8879 18.003 13.8879 17.8788C13.8879 17.7545 13.7849 17.6515 13.6606 17.6515H7.26061C7.20951 17.2717 7.03503 16.9191 6.76402 16.6481C6.493 16.3771 6.14046 16.2026 5.76061 16.1515V6.05758C6.0394 5.97879 6.31213 5.88485 6.57879 5.77879C6.58182 5.77879 6.58485 5.78182 6.58788 5.78182H12.4758C12.5269 6.16167 12.7013 6.51421 12.9724 6.78522C13.2434 7.05624 13.5959 7.23071 13.9758 7.28182V10.2424C13.0697 10.8212 12.4667 11.8333 12.4667 12.9848C12.4667 13.8333 12.7939 14.603 13.3273 15.1818L12.5788 17.0333C12.5631 17.0727 12.5587 17.1157 12.5661 17.1575C12.5736 17.1993 12.5926 17.2381 12.6209 17.2697C12.6493 17.3012 12.6859 17.3241 12.7267 17.3359C12.7675 17.3477 12.8107 17.3479 12.8515 17.3364L13.8576 17.0485L14.3818 17.9545C14.4212 18.0242 14.497 18.0667 14.5788 18.0667H14.5939C14.6818 18.0606 14.7576 18.0061 14.7879 17.9242L15.4758 16.2242H15.4909V19.1667H5.27879C4.7091 19.1667 4.24546 18.703 4.24546 18.1364ZM13.6818 15.5152C14.0636 15.8242 14.5182 16.0455 15.0152 16.1576L14.5455 17.3212L14.1667 16.6636C14.1413 16.6195 14.1018 16.585 14.0546 16.5658C14.0074 16.5466 13.9551 16.5437 13.9061 16.5576L13.1758 16.7667L13.6818 15.5152ZM15.7182 15.7818C14.1758 15.7818 12.9212 14.5273 12.9212 12.9848C12.9212 11.4424 14.1758 10.1879 15.7182 10.1879C17.2606 10.1879 18.5152 11.4424 18.5152 12.9848C18.5152 14.5273 17.2606 15.7818 15.7182 15.7818ZM17.5333 16.5576C17.4843 16.5443 17.4322 16.5475 17.3851 16.5666C17.3381 16.5858 17.2986 16.6199 17.2727 16.6636L16.8939 17.3212L16.4242 16.1576C16.9212 16.0485 17.3727 15.8242 17.7576 15.5152L18.2636 16.7697L17.5333 16.5576Z" fill="#323232" stroke="#323232" stroke-width="0.3"/>
<path d="M8.03334 8.8394H11.7C11.8243 8.8394 11.9273 8.73636 11.9273 8.61212C11.9273 8.48788 11.8243 8.38485 11.7 8.38485H8.03334C7.9091 8.38485 7.80607 8.48788 7.80607 8.61212C7.80607 8.73636 7.9091 8.8394 8.03334 8.8394ZM6.82122 10.4364H12.9121C13.0364 10.4364 13.1394 10.3333 13.1394 10.2091C13.1394 10.0848 13.0364 9.98182 12.9121 9.98182H6.82122C6.69698 9.98182 6.59395 10.0848 6.59395 10.2091C6.59395 10.3333 6.69698 10.4364 6.82122 10.4364ZM11.9636 11.5818H6.82122C6.69698 11.5818 6.59395 11.6848 6.59395 11.8091C6.59395 11.9333 6.69698 12.0364 6.82122 12.0364H11.9606C12.0849 12.0364 12.1879 11.9333 12.1879 11.8091C12.1879 11.6848 12.0879 11.5818 11.9636 11.5818ZM11.8091 13.1818H6.82122C6.69698 13.1818 6.59395 13.2848 6.59395 13.4091C6.59395 13.5333 6.69698 13.6364 6.82122 13.6364H11.8061C11.9303 13.6364 12.0333 13.5333 12.0333 13.4091C12.0333 13.2848 11.9333 13.1818 11.8091 13.1818ZM8.67274 14.7788H6.82425C6.70001 14.7788 6.59698 14.8818 6.59698 15.0061C6.59698 15.1303 6.70001 15.2333 6.82425 15.2333H8.67274C8.79698 15.2333 8.90001 15.1303 8.90001 15.0061C8.90001 14.8818 8.79698 14.7788 8.67274 14.7788ZM16.6212 12.0545L15.2455 13.4303L14.8121 12.997C14.7243 12.9091 14.5788 12.9091 14.4909 12.997C14.403 13.0848 14.403 13.2303 14.4909 13.3182L15.0849 13.9121C15.1303 13.9576 15.1879 13.9788 15.2455 13.9788C15.303 13.9788 15.3606 13.9576 15.4061 13.9121L16.9424 12.3758C17.0303 12.2879 17.0303 12.1424 16.9424 12.0545C16.8546 11.9667 16.7091 11.9667 16.6212 12.0545Z" fill="#323232" stroke="#323232" stroke-width="0.2"/>
</svg>
