<svg width="64" height="62" viewBox="0 0 64 62" fill="none" xmlns="http://www.w3.org/2000/svg">
<g filter="url(#filter0_ddii_274_9267)">
<ellipse cx="35.7421" cy="34.4996" rx="16.2579" ry="15.3424" fill="#F8F8F8"/>
</g>
<path d="M32.9999 39.6667C32.9999 40.4 33.5999 41 34.3333 41H39.6666C40.3999 41 40.9999 40.4 40.9999 39.6667V33C40.9999 32.2667 40.3999 31.6667 39.6666 31.6667H34.3333C33.5999 31.6667 32.9999 32.2667 32.9999 33V39.6667ZM40.9999 29.6667H39.3333L38.8599 29.1933C38.7399 29.0733 38.5666 29 38.3933 29H35.6066C35.4333 29 35.2599 29.0733 35.1399 29.1933L34.6666 29.6667H32.9999C32.6333 29.6667 32.3333 29.9667 32.3333 30.3333C32.3333 30.7 32.6333 31 32.9999 31H40.9999C41.3666 31 41.6666 30.7 41.6666 30.3333C41.6666 29.9667 41.3666 29.6667 40.9999 29.6667Z" fill="#FF0000"/>
<defs>
<filter id="filter0_ddii_274_9267" x="0.773864" y="0.446959" width="62.4523" height="61.3694" filterUnits="userSpaceOnUse" color-interpolation-filters="sRGB">
<feFlood flood-opacity="0" result="BackgroundImageFix"/>
<feColorMatrix in="SourceAlpha" type="matrix" values="0 0 0 0 0 0 0 0 0 0 0 0 0 0 0 0 0 0 127 0" result="hardAlpha"/>
<feOffset dx="3.74205" dy="4.49046"/>
<feGaussianBlur stdDeviation="3.74205"/>
<feColorMatrix type="matrix" values="0 0 0 0 0 0 0 0 0 0 0 0 0 0 0 0 0 0 0.2 0"/>
<feBlend mode="normal" in2="BackgroundImageFix" result="effect1_dropShadow_274_9267"/>
<feColorMatrix in="SourceAlpha" type="matrix" values="0 0 0 0 0 0 0 0 0 0 0 0 0 0 0 0 0 0 127 0" result="hardAlpha"/>
<feOffset dx="-7.48411" dy="-7.48411"/>
<feGaussianBlur stdDeviation="5.61308"/>
<feColorMatrix type="matrix" values="0 0 0 0 1 0 0 0 0 1 0 0 0 0 1 0 0 0 1 0"/>
<feBlend mode="normal" in2="effect1_dropShadow_274_9267" result="effect2_dropShadow_274_9267"/>
<feBlend mode="normal" in="SourceGraphic" in2="effect2_dropShadow_274_9267" result="shape"/>
<feColorMatrix in="SourceAlpha" type="matrix" values="0 0 0 0 0 0 0 0 0 0 0 0 0 0 0 0 0 0 127 0" result="hardAlpha"/>
<feOffset dx="-7.48411" dy="-7.48411"/>
<feGaussianBlur stdDeviation="7.48411"/>
<feComposite in2="hardAlpha" operator="arithmetic" k2="-1" k3="1"/>
<feColorMatrix type="matrix" values="0 0 0 0 1 0 0 0 0 1 0 0 0 0 1 0 0 0 1 0"/>
<feBlend mode="soft-light" in2="shape" result="effect3_innerShadow_274_9267"/>
<feColorMatrix in="SourceAlpha" type="matrix" values="0 0 0 0 0 0 0 0 0 0 0 0 0 0 0 0 0 0 127 0" result="hardAlpha"/>
<feOffset dx="7.48411" dy="7.48411"/>
<feGaussianBlur stdDeviation="3.74205"/>
<feComposite in2="hardAlpha" operator="arithmetic" k2="-1" k3="1"/>
<feColorMatrix type="matrix" values="0 0 0 0 0 0 0 0 0 0 0 0 0 0 0 0 0 0 0.05 0"/>
<feBlend mode="normal" in2="effect3_innerShadow_274_9267" result="effect4_innerShadow_274_9267"/>
</filter>
</defs>
</svg>
