<svg width="29" height="30" viewBox="0 0 29 30" fill="none" xmlns="http://www.w3.org/2000/svg">
<path d="M17.7296 7.8186V8.65203H21.2108C22.5129 8.65203 23.5722 9.71137 23.5722 11.0135C23.5722 11.0442 23.5716 11.0751 23.5705 11.1059C23.5239 12.3307 22.528 13.3266 21.3032 13.3731C20.1017 13.4199 19.0888 12.5633 18.8863 11.4302H20.0996V10.5968H18.016V11.0135C18.016 12.7751 19.4492 14.2083 21.2108 14.2083C21.252 14.2083 21.2934 14.2075 21.3348 14.206C22.9925 14.143 24.3403 12.7952 24.4033 11.1373C24.4048 11.0959 24.4056 11.0546 24.4056 11.0135C24.4056 9.25188 22.9725 7.81865 21.2108 7.81865L17.7296 7.8186ZM7.08505 14.2059C7.12641 14.2075 7.16779 14.2082 7.20918 14.2082C8.97083 14.2082 10.404 12.7751 10.404 11.0134V10.5967H8.32042V11.4301H9.53373C9.33632 12.5341 8.36909 13.3748 7.20918 13.3748C7.17851 13.3748 7.14778 13.3742 7.11672 13.373C5.89197 13.3265 4.89607 12.3306 4.84957 11.106C4.84839 11.0752 4.8478 11.0443 4.84779 11.0134C4.84779 9.71132 5.90708 8.65203 7.20918 8.65203H16.8962V7.8186H7.20918C5.44753 7.8186 4.01436 9.25176 4.01436 11.0134C4.01436 11.0545 4.01519 11.0958 4.01675 11.1374C4.0797 12.7951 5.42752 14.1429 7.08505 14.2059ZM9.68169 2.11493L10.4034 1.69821L11.7925 4.10405L11.0707 4.52077L9.68169 2.11493ZM6.78385 5.3183L7.20057 4.59655L9.6064 5.9856L9.18969 6.70735L6.78385 5.3183ZM18.813 5.98533L21.2189 4.59627L21.6356 5.31803L19.2298 6.70708L18.813 5.98533ZM16.6271 4.10449L18.0162 1.69866L18.7379 2.11537L17.3489 4.52121L16.6271 4.10449ZM27.6838 26.7097V23.9814L22.8272 23.3614L22.7216 24.1881L26.8504 24.7152V26.7097H18.9883V27.5431H27.5727V28.3766H6.87581V29.21H28.4061V26.7097H27.6838Z" fill="#323232"/>
<path d="M0.847317 27.5431H18.1549V26.7097H14.6267V25.8368C14.6267 24.5345 15.6837 23.475 16.9829 23.475C17.0837 23.475 17.186 23.4815 17.2871 23.4944L21.895 24.0827L22.0005 23.256L21.8498 23.2367V15.0139H21.0163V23.1303L19.8495 22.9813V16.3474C19.8495 15.5048 19.1641 14.8194 18.3216 14.8194C17.4791 14.8194 16.7936 15.5048 16.7936 16.3474V22.6474C16.4301 22.6686 16.073 22.7524 15.738 22.8951V16.3474C15.738 15.5048 15.0525 14.8194 14.21 14.8194C13.3675 14.8194 12.682 15.5048 12.682 16.3474V22.8951C12.347 22.7524 11.9899 22.6686 11.6264 22.6474V16.3474C11.6264 15.5048 10.9409 14.8194 10.0984 14.8194C9.25591 14.8194 8.57044 15.5048 8.57044 16.3474V22.9813L7.40364 23.1303V15.0139H6.57021V23.2366L0.736192 23.9814V26.7097H0.0138855V29.21H6.04237V28.3766H0.847317V27.5431ZM17.6271 16.3474C17.6271 15.9644 17.9386 15.6528 18.3216 15.6528C18.7046 15.6528 19.0161 15.9644 19.0161 16.3474V22.8749L17.6271 22.6976V16.3474ZM13.5155 16.3474C13.5155 15.9644 13.827 15.6528 14.21 15.6528C14.593 15.6528 14.9045 15.9644 14.9045 16.3474V23.4154C14.6266 23.6549 14.3917 23.9402 14.21 24.2589C14.0283 23.9402 13.7934 23.6549 13.5155 23.4154V16.3474ZM9.40388 16.3474C9.40388 15.9644 9.71541 15.6528 10.0984 15.6528C10.4814 15.6528 10.7929 15.9644 10.7929 16.3474V22.6976L9.40388 22.8749V16.3474ZM1.56962 24.7152L11.1328 23.4944C11.2337 23.4815 11.3353 23.475 11.437 23.4749C12.7363 23.4749 13.7933 24.5344 13.7933 25.8367V26.7097H1.56962V24.7152ZM13.7933 0.789993H14.6267V3.5681H13.7933V0.789993ZM15.4601 10.5967H16.2936V11.4301H15.4601V10.5967ZM12.1264 10.5967H12.9598V11.4301H12.1264V10.5967ZM13.7933 10.5967H14.6267V11.4301H13.7933V10.5967ZM21.0441 10.5967H21.8776V11.4301H21.0441V10.5967ZM6.54243 10.5967H7.37586V11.4301H6.54243V10.5967Z" fill="#323232"/>
</svg>
