<svg width="23" height="24" viewBox="0 0 23 24" fill="none" xmlns="http://www.w3.org/2000/svg">
<path fill-rule="evenodd" clip-rule="evenodd" d="M4.85933 4.27488V2.13556C4.85933 1.81367 4.9872 1.50496 5.21481 1.27735C5.44242 1.04974 5.75112 0.921875 6.07301 0.921875C6.3949 0.921875 6.7036 1.04974 6.93121 1.27735C7.15882 1.50496 7.28669 1.81367 7.28669 2.13556V4.037C9.0344 3.90754 10.5086 3.86708 11.3275 3.86708C12.1447 3.86708 13.614 3.90916 15.3569 4.03538V2.13556C15.3569 1.81367 15.4848 1.50496 15.7124 1.27735C15.94 1.04974 16.2487 0.921875 16.5706 0.921875C16.8925 0.921875 17.2012 1.04974 17.4288 1.27735C17.6564 1.50496 17.7842 1.81367 17.7842 2.13556V4.27164C18.7579 4.4526 19.66 4.90642 20.3857 5.58025C21.1114 6.25408 21.6308 7.1202 21.8833 8.07775C22.003 8.53734 21.6243 8.94837 21.1502 8.94837H1.5047C1.02894 8.94837 0.651888 8.53734 0.771639 8.07775C1.02384 7.1223 1.54171 6.25791 2.26521 5.58483C2.9887 4.91174 3.88818 4.45753 4.85933 4.27488ZM0.446371 11.7398C0.455151 11.5331 0.543626 11.3377 0.693256 11.1947C0.842885 11.0517 1.04205 10.9722 1.24902 10.9728H21.4059C21.8363 10.9728 22.1923 11.3094 22.2085 11.7398C22.2393 12.4729 22.2506 13.0749 22.2506 13.4584C22.2506 14.2611 22.2004 16.0152 22.0354 17.9442C21.9318 19.1619 21.4048 20.3049 20.5459 21.1744C19.6871 22.0438 18.5507 22.5849 17.3344 22.7035C15.3384 22.9094 13.3339 23.0228 11.3275 23.0433C9.32097 23.0228 7.31652 22.9094 5.32053 22.7035C4.10391 22.5848 2.96735 22.0435 2.10847 21.1737C1.2496 20.3039 0.722747 19.1606 0.619523 17.9426C0.490825 16.4506 0.419031 14.9543 0.404297 13.4568C0.404297 13.0733 0.415625 12.4729 0.446371 11.7398Z" fill="white"/>
</svg>
