<svg width="23" height="24" viewBox="0 0 23 24" fill="none" xmlns="http://www.w3.org/2000/svg">
<g clip-path="url(#clip0_274_8996)">
<path fill-rule="evenodd" clip-rule="evenodd" d="M11.3304 1.74478C10.1861 1.74478 9.17772 2.0685 8.45422 2.792C7.73233 3.51388 7.40862 4.52225 7.40862 5.66658C7.40862 6.81253 7.73233 7.8209 8.45422 8.54278C9.1761 9.26467 10.1861 9.58838 11.3304 9.58838C12.4747 9.58838 13.4831 9.26467 14.2066 8.54278C14.9285 7.8209 15.2522 6.81091 15.2522 5.66658C15.2522 4.52225 14.9285 3.51388 14.2066 2.792C13.4831 2.07012 12.4747 1.74316 11.3304 1.74316V1.74478ZM16.2169 11.508C14.3474 11.0678 12.847 10.8428 11.3288 10.8444C9.8122 10.8476 8.3134 11.0775 6.44881 11.508C6.27041 11.549 6.11119 11.6493 5.99713 11.7924C5.88307 11.9356 5.82091 12.1132 5.8208 12.2963C5.8208 14.7306 6.0215 17.3737 6.75957 19.4342C7.13023 20.47 7.65464 21.4153 8.40728 22.1048C9.20125 22.84 10.2485 23.2401 11.3304 23.2216C12.4124 23.2406 13.4599 22.8404 14.2536 22.1048C15.0062 21.4153 15.5322 20.47 15.9013 19.4342C16.6393 17.3737 16.84 14.7306 16.84 12.2963C16.8402 12.1139 16.7787 11.9368 16.6656 11.7937C16.5525 11.6506 16.3944 11.55 16.2169 11.508Z" fill="white"/>
</g>
<defs>
<clipPath id="clip0_274_8996">
<rect width="22.66" height="22.66" fill="white" transform="translate(0 0.96582)"/>
</clipPath>
</defs>
</svg>
