<svg width="20" height="20" viewBox="0 0 20 20" fill="none" xmlns="http://www.w3.org/2000/svg">
<path d="M19.6667 17.7593V10C19.6657 9.94844 19.6526 9.89783 19.6283 9.85233H19.6317L18.8157 8.22066C18.7333 8.05393 18.6059 7.91363 18.4478 7.8157C18.2897 7.71777 18.1073 7.66614 17.9213 7.66666H15.6667V7.33333C15.6666 7.24493 15.6315 7.16016 15.569 7.09766L13.7643 5.293C13.6444 5.17429 13.496 5.08832 13.3333 5.04333V2.795L14 2.616V3.42566C13.9998 3.59419 14.0413 3.76015 14.1208 3.90875C14.2003 4.05734 14.3154 4.18397 14.4557 4.27733C14.5292 4.3264 14.6193 4.34423 14.706 4.32692C14.7927 4.3096 14.8689 4.25855 14.918 4.185C14.9671 4.11144 14.9849 4.02141 14.9676 3.93471C14.9503 3.848 14.8992 3.77173 14.8257 3.72266C14.7767 3.69014 14.7366 3.64599 14.7088 3.59416C14.6811 3.54234 14.6666 3.48445 14.6667 3.42566V2.40767C14.7808 2.34176 14.8728 2.24352 14.9311 2.12536C14.9894 2.0072 15.0114 1.8744 14.9942 1.74376C14.9771 1.61311 14.9217 1.49046 14.8349 1.39131C14.7481 1.29216 14.6339 1.22094 14.5067 1.18666L10.1713 0.022665C10.0591 -0.00733121 9.94092 -0.00733121 9.82867 0.022665L5.49333 1.18666C5.3515 1.22539 5.22633 1.30966 5.13711 1.42651C5.04788 1.54337 4.99955 1.68631 4.99955 1.83333C4.99955 1.98035 5.04788 2.1233 5.13711 2.24015C5.22633 2.357 5.3515 2.44128 5.49333 2.48L6.66667 2.795V5H6.64567C6.34933 5 6.06833 5.132 5.879 5.36L4.41233 7.12C4.3618 7.17965 4.33384 7.25516 4.33333 7.33333V7.66666H2.07867C1.89285 7.66602 1.71056 7.71745 1.55249 7.81514C1.39441 7.91282 1.26687 8.05285 1.18433 8.21933L0.368333 9.851H0.371667C0.347184 9.89689 0.33404 9.94798 0.333333 10V17.7593C0.23232 17.8174 0.148347 17.901 0.0898409 18.0017C0.0313344 18.1025 0.000351315 18.2168 0 18.3333L0 19C0 19.1768 0.0702379 19.3464 0.195262 19.4714C0.320286 19.5964 0.489856 19.6667 0.666667 19.6667H5.09267C5.21067 19.8723 5.42933 19.9993 5.66667 20H14.3333C14.4498 19.9996 14.5642 19.9687 14.6649 19.9102C14.7657 19.8517 14.8493 19.7677 14.9073 19.6667H19.3333C19.5101 19.6667 19.6797 19.5964 19.8047 19.4714C19.9298 19.3464 20 19.1768 20 19V18.3333C19.9996 18.2168 19.9687 18.1025 19.9102 18.0017C19.8517 17.901 19.7677 17.8174 19.6667 17.7593ZM14.6667 17.6667H14.3333V10.3333H19V17.6667H14.6667ZM11 17.6667H9V14H11V17.6667ZM11.3333 13.3333H8.66667C8.57826 13.3333 8.49348 13.3685 8.43096 13.431C8.36845 13.4935 8.33333 13.5783 8.33333 13.6667V17.6667H6.33333V10.3333H13.6667V17.6667H11.6667V13.6667C11.6667 13.5783 11.6315 13.4935 11.569 13.431C11.5065 13.3685 11.4217 13.3333 11.3333 13.3333ZM15 7.66666V8.33333H5V7.66666H15ZM14.3333 9V9.66666H5.66667V9H14.3333ZM17.9213 8.33333C17.9833 8.33313 18.044 8.3503 18.0967 8.38288C18.1494 8.41546 18.1919 8.46216 18.2193 8.51766L18.794 9.66666H15V9C15.1768 9 15.3464 8.92976 15.4714 8.80474C15.5964 8.67971 15.6667 8.51014 15.6667 8.33333H17.9213ZM10 0.666665L14.338 1.83333H14.3337L10.0017 3L5.66667 1.83066L10 0.666665ZM7.33333 2.974L9.82867 3.644C9.941 3.674 10.059 3.674 10.1713 3.644L12.6667 2.974V5H7.33333V2.974ZM6.38967 5.78666C6.42094 5.74912 6.46008 5.71891 6.50431 5.69818C6.54855 5.67744 6.59681 5.66668 6.64567 5.66666H13.057C13.1008 5.66663 13.1442 5.67524 13.1847 5.692C13.2252 5.70876 13.262 5.73334 13.293 5.76433L14.5287 7H5.37833L6.38967 5.78666ZM1.78067 8.51766C1.80815 8.46216 1.85063 8.41546 1.90331 8.38288C1.95598 8.3503 2.01673 8.33313 2.07867 8.33333H4.33333C4.33333 8.51014 4.40357 8.67971 4.5286 8.80474C4.65362 8.92976 4.82319 9 5 9V9.66666H1.206L1.78067 8.51766ZM0.666667 18.3333H5V19H0.666667V18.3333ZM5.33333 17.6667H1V10.3333H5.66667V17.6667H5.33333ZM5.66667 19.3333V18.3333H14.3333V19.3333H5.66667ZM19.3333 19H15V18.3333H19.3333V19Z" fill="#323232"/>
<path d="M9 11C8.91159 11 8.82681 11.0351 8.7643 11.0976C8.70179 11.1601 8.66667 11.2449 8.66667 11.3333V12C8.66667 12.0884 8.70179 12.1732 8.7643 12.2357C8.82681 12.2982 8.91159 12.3333 9 12.3333C9.08841 12.3333 9.17319 12.2982 9.2357 12.2357C9.29821 12.1732 9.33333 12.0884 9.33333 12V11.3333C9.33333 11.2449 9.29821 11.1601 9.2357 11.0976C9.17319 11.0351 9.08841 11 9 11ZM4.33333 11.3333C4.24493 11.3333 4.16014 11.3685 4.09763 11.431C4.03512 11.4935 4 11.5783 4 11.6667V12.3333C4 12.4217 4.03512 12.5065 4.09763 12.569C4.16014 12.6315 4.24493 12.6667 4.33333 12.6667C4.42174 12.6667 4.50652 12.6315 4.56904 12.569C4.63155 12.5065 4.66667 12.4217 4.66667 12.3333V11.6667C4.66667 11.5783 4.63155 11.4935 4.56904 11.431C4.50652 11.3685 4.42174 11.3333 4.33333 11.3333ZM2.33333 11.3333C2.24493 11.3333 2.16014 11.3685 2.09763 11.431C2.03512 11.4935 2 11.5783 2 11.6667V12.3333C2 12.4217 2.03512 12.5065 2.09763 12.569C2.16014 12.6315 2.24493 12.6667 2.33333 12.6667C2.42174 12.6667 2.50652 12.6315 2.56904 12.569C2.63155 12.5065 2.66667 12.4217 2.66667 12.3333V11.6667C2.66667 11.5783 2.63155 11.4935 2.56904 11.431C2.50652 11.3685 2.42174 11.3333 2.33333 11.3333ZM4.33333 13.3333C4.24493 13.3333 4.16014 13.3685 4.09763 13.431C4.03512 13.4935 4 13.5783 4 13.6667V14.3333C4 14.4217 4.03512 14.5065 4.09763 14.569C4.16014 14.6315 4.24493 14.6667 4.33333 14.6667C4.42174 14.6667 4.50652 14.6315 4.56904 14.569C4.63155 14.5065 4.66667 14.4217 4.66667 14.3333V13.6667C4.66667 13.5783 4.63155 13.4935 4.56904 13.431C4.50652 13.3685 4.42174 13.3333 4.33333 13.3333ZM2.33333 13.3333C2.24493 13.3333 2.16014 13.3685 2.09763 13.431C2.03512 13.4935 2 13.5783 2 13.6667V14.3333C2 14.4217 2.03512 14.5065 2.09763 14.569C2.16014 14.6315 2.24493 14.6667 2.33333 14.6667C2.42174 14.6667 2.50652 14.6315 2.56904 14.569C2.63155 14.5065 2.66667 14.4217 2.66667 14.3333V13.6667C2.66667 13.5783 2.63155 13.4935 2.56904 13.431C2.50652 13.3685 2.42174 13.3333 2.33333 13.3333ZM4.33333 15.3333C4.24493 15.3333 4.16014 15.3685 4.09763 15.431C4.03512 15.4935 4 15.5783 4 15.6667V16.3333C4 16.4217 4.03512 16.5065 4.09763 16.569C4.16014 16.6315 4.24493 16.6667 4.33333 16.6667C4.42174 16.6667 4.50652 16.6315 4.56904 16.569C4.63155 16.5065 4.66667 16.4217 4.66667 16.3333V15.6667C4.66667 15.5783 4.63155 15.4935 4.56904 15.431C4.50652 15.3685 4.42174 15.3333 4.33333 15.3333ZM2.33333 15.3333C2.24493 15.3333 2.16014 15.3685 2.09763 15.431C2.03512 15.4935 2 15.5783 2 15.6667V16.3333C2 16.4217 2.03512 16.5065 2.09763 16.569C2.16014 16.6315 2.24493 16.6667 2.33333 16.6667C2.42174 16.6667 2.50652 16.6315 2.56904 16.569C2.63155 16.5065 2.66667 16.4217 2.66667 16.3333V15.6667C2.66667 15.5783 2.63155 15.4935 2.56904 15.431C2.50652 15.3685 2.42174 15.3333 2.33333 15.3333ZM17.6667 11.3333C17.5783 11.3333 17.4935 11.3685 17.431 11.431C17.3685 11.4935 17.3333 11.5783 17.3333 11.6667V12.3333C17.3333 12.4217 17.3685 12.5065 17.431 12.569C17.4935 12.6315 17.5783 12.6667 17.6667 12.6667C17.7551 12.6667 17.8399 12.6315 17.9024 12.569C17.9649 12.5065 18 12.4217 18 12.3333V11.6667C18 11.5783 17.9649 11.4935 17.9024 11.431C17.8399 11.3685 17.7551 11.3333 17.6667 11.3333ZM15.6667 11.3333C15.5783 11.3333 15.4935 11.3685 15.431 11.431C15.3685 11.4935 15.3333 11.5783 15.3333 11.6667V12.3333C15.3333 12.4217 15.3685 12.5065 15.431 12.569C15.4935 12.6315 15.5783 12.6667 15.6667 12.6667C15.7551 12.6667 15.8399 12.6315 15.9024 12.569C15.9649 12.5065 16 12.4217 16 12.3333V11.6667C16 11.5783 15.9649 11.4935 15.9024 11.431C15.8399 11.3685 15.7551 11.3333 15.6667 11.3333ZM17.6667 13.3333C17.5783 13.3333 17.4935 13.3685 17.431 13.431C17.3685 13.4935 17.3333 13.5783 17.3333 13.6667V14.3333C17.3333 14.4217 17.3685 14.5065 17.431 14.569C17.4935 14.6315 17.5783 14.6667 17.6667 14.6667C17.7551 14.6667 17.8399 14.6315 17.9024 14.569C17.9649 14.5065 18 14.4217 18 14.3333V13.6667C18 13.5783 17.9649 13.4935 17.9024 13.431C17.8399 13.3685 17.7551 13.3333 17.6667 13.3333ZM15.6667 13.3333C15.5783 13.3333 15.4935 13.3685 15.431 13.431C15.3685 13.4935 15.3333 13.5783 15.3333 13.6667V14.3333C15.3333 14.4217 15.3685 14.5065 15.431 14.569C15.4935 14.6315 15.5783 14.6667 15.6667 14.6667C15.7551 14.6667 15.8399 14.6315 15.9024 14.569C15.9649 14.5065 16 14.4217 16 14.3333V13.6667C16 13.5783 15.9649 13.4935 15.9024 13.431C15.8399 13.3685 15.7551 13.3333 15.6667 13.3333ZM17.6667 15.3333C17.5783 15.3333 17.4935 15.3685 17.431 15.431C17.3685 15.4935 17.3333 15.5783 17.3333 15.6667V16.3333C17.3333 16.4217 17.3685 16.5065 17.431 16.569C17.4935 16.6315 17.5783 16.6667 17.6667 16.6667C17.7551 16.6667 17.8399 16.6315 17.9024 16.569C17.9649 16.5065 18 16.4217 18 16.3333V15.6667C18 15.5783 17.9649 15.4935 17.9024 15.431C17.8399 15.3685 17.7551 15.3333 17.6667 15.3333ZM15.6667 15.3333C15.5783 15.3333 15.4935 15.3685 15.431 15.431C15.3685 15.4935 15.3333 15.5783 15.3333 15.6667V16.3333C15.3333 16.4217 15.3685 16.5065 15.431 16.569C15.4935 16.6315 15.5783 16.6667 15.6667 16.6667C15.7551 16.6667 15.8399 16.6315 15.9024 16.569C15.9649 16.5065 16 16.4217 16 16.3333V15.6667C16 15.5783 15.9649 15.4935 15.9024 15.431C15.8399 15.3685 15.7551 15.3333 15.6667 15.3333ZM11 11C10.9116 11 10.8268 11.0351 10.7643 11.0976C10.7018 11.1601 10.6667 11.2449 10.6667 11.3333V12C10.6667 12.0884 10.7018 12.1732 10.7643 12.2357C10.8268 12.2982 10.9116 12.3333 11 12.3333C11.0884 12.3333 11.1732 12.2982 11.2357 12.2357C11.2982 12.1732 11.3333 12.0884 11.3333 12V11.3333C11.3333 11.2449 11.2982 11.1601 11.2357 11.0976C11.1732 11.0351 11.0884 11 11 11Z" fill="#323232"/>
</svg>
