<svg width="16" height="14" viewBox="0 0 16 14" fill="none" xmlns="http://www.w3.org/2000/svg">
<path d="M3.20002 9.1C2.79446 9.1 2.398 8.97973 2.0608 8.75439C1.7236 8.52905 1.46079 8.20878 1.30563 7.83407C1.15046 7.45936 1.1099 7.04705 1.18908 6.64929C1.26826 6.25153 1.46362 5.88619 1.75046 5.59947C2.03729 5.31274 2.40271 5.11752 2.8005 5.0385C3.19829 4.95948 3.61059 5.00019 3.98523 5.15551C4.35988 5.31082 4.68005 5.57375 4.90526 5.91104C5.13046 6.24833 5.25058 6.64483 5.25042 7.0504C5.24979 7.59393 5.03354 8.11501 4.64913 8.49927C4.26472 8.88353 3.74356 9.09958 3.20002 9.1ZM3.20002 5.8C2.95272 5.8 2.71097 5.87334 2.50534 6.01073C2.29971 6.14813 2.13945 6.34341 2.04481 6.57189C1.95017 6.80037 1.9254 7.05179 1.97365 7.29434C2.0219 7.5369 2.14099 7.7597 2.31586 7.93457C2.49073 8.10944 2.71353 8.22853 2.95608 8.27677C3.19864 8.32502 3.45005 8.30026 3.67853 8.20562C3.90701 8.11098 4.1023 7.95071 4.23969 7.74509C4.37709 7.53946 4.45042 7.29771 4.45042 7.0504C4.45021 6.71884 4.31841 6.40092 4.08396 6.16647C3.84951 5.93202 3.53159 5.80021 3.20002 5.8ZM5.60002 13.8C5.49394 13.8 5.3922 13.7579 5.31718 13.6828C5.24217 13.6078 5.20002 13.5061 5.20002 13.4V12.6C5.20002 12.0696 4.98931 11.5609 4.61424 11.1858C4.23917 10.8107 3.73046 10.6 3.20002 10.6C2.66959 10.6 2.16088 10.8107 1.78581 11.1858C1.41074 11.5609 1.20002 12.0696 1.20002 12.6V13.4C1.20002 13.5061 1.15788 13.6078 1.08287 13.6828C1.00785 13.7579 0.906111 13.8 0.800024 13.8C0.693938 13.8 0.592196 13.7579 0.517182 13.6828C0.442167 13.6078 0.400024 13.5061 0.400024 13.4V12.6C0.400024 11.8574 0.695024 11.1452 1.22013 10.6201C1.74523 10.095 2.45742 9.8 3.20002 9.8C3.94263 9.8 4.65482 10.095 5.17992 10.6201C5.70503 11.1452 6.00002 11.8574 6.00002 12.6V13.4C6.00002 13.5061 5.95788 13.6078 5.88287 13.6828C5.80785 13.7579 5.70611 13.8 5.60002 13.8Z" fill="#323232"/>
<path d="M5.6 13.288C5.52392 13.2879 5.44943 13.2662 5.38527 13.2253C5.32111 13.1844 5.26995 13.1261 5.23779 13.0571C5.20562 12.9882 5.19379 12.9115 5.20367 12.836C5.21356 12.7606 5.24475 12.6895 5.2936 12.6312L10.8936 5.9432C10.9629 5.86587 11.0595 5.8185 11.163 5.81109C11.2666 5.80369 11.3689 5.83683 11.4485 5.90351C11.5281 5.97019 11.5786 6.06519 11.5894 6.16844C11.6002 6.27169 11.5704 6.37509 11.5064 6.4568L5.9064 13.1448C5.86889 13.1896 5.82202 13.2256 5.76908 13.2504C5.71614 13.2751 5.65843 13.288 5.6 13.288ZM2.4 4.2C2.29391 4.2 2.19217 4.15786 2.11716 4.08284C2.04214 4.00783 2 3.90609 2 3.8V0.600001C2 0.493914 2.04214 0.392173 2.11716 0.317158C2.19217 0.242144 2.29391 0.200001 2.4 0.200001C2.50609 0.200001 2.60783 0.242144 2.68284 0.317158C2.75786 0.392173 2.8 0.493914 2.8 0.600001V3.8C2.8 3.90609 2.75786 4.00783 2.68284 4.08284C2.60783 4.15786 2.50609 4.2 2.4 4.2Z" fill="#323232"/>
<path d="M15.2001 1H1.60007C1.49399 1 1.39225 0.957858 1.31723 0.882843C1.24222 0.807829 1.20007 0.706087 1.20007 0.600001C1.20007 0.493914 1.24222 0.392173 1.31723 0.317158C1.39225 0.242144 1.49399 0.200001 1.60007 0.200001H15.2001C15.3062 0.200001 15.4079 0.242144 15.4829 0.317158C15.5579 0.392173 15.6001 0.493914 15.6001 0.600001C15.6001 0.706087 15.5579 0.807829 15.4829 0.882843C15.4079 0.957858 15.3062 1 15.2001 1Z" fill="#323232"/>
<path d="M14.4 9.8C14.2939 9.8 14.1922 9.75786 14.1172 9.68284C14.0421 9.60783 14 9.50609 14 9.4V0.600001C14 0.493914 14.0421 0.392173 14.1172 0.317158C14.1922 0.242144 14.2939 0.200001 14.4 0.200001C14.5061 0.200001 14.6078 0.242144 14.6828 0.317158C14.7579 0.392173 14.8 0.493914 14.8 0.600001V9.4C14.8 9.50609 14.7579 9.60783 14.6828 9.68284C14.6078 9.75786 14.5061 9.8 14.4 9.8Z" fill="#323232"/>
<path d="M15.2001 9.8H10.4001C10.294 9.8 10.1922 9.75786 10.1172 9.68285C10.0422 9.60783 10.0001 9.50609 10.0001 9.4C10.0001 9.29392 10.0422 9.19217 10.1172 9.11716C10.1922 9.04214 10.294 9 10.4001 9H15.2001C15.3062 9 15.4079 9.04214 15.4829 9.11716C15.5579 9.19217 15.6001 9.29392 15.6001 9.4C15.6001 9.50609 15.5579 9.60783 15.4829 9.68285C15.4079 9.75786 15.3062 9.8 15.2001 9.8ZM12.0001 3.4H7.20007C7.09399 3.4 6.99224 3.35786 6.91723 3.28284C6.84222 3.20783 6.80007 3.10609 6.80007 3C6.80007 2.89392 6.84222 2.79217 6.91723 2.71716C6.99224 2.64215 7.09399 2.6 7.20007 2.6H12.0001C12.1062 2.6 12.2079 2.64215 12.2829 2.71716C12.3579 2.79217 12.4001 2.89392 12.4001 3C12.4001 3.10609 12.3579 3.20783 12.2829 3.28284C12.2079 3.35786 12.1062 3.4 12.0001 3.4ZM12.0001 5H5.60007C5.49399 5 5.39224 4.95786 5.31723 4.88285C5.24222 4.80783 5.20007 4.70609 5.20007 4.6C5.20007 4.49392 5.24222 4.39217 5.31723 4.31716C5.39224 4.24214 5.49399 4.2 5.60007 4.2H12.0001C12.1062 4.2 12.2079 4.24214 12.2829 4.31716C12.3579 4.39217 12.4001 4.49392 12.4001 4.6C12.4001 4.70609 12.3579 4.80783 12.2829 4.88285C12.2079 4.95786 12.1062 5 12.0001 5Z" fill="#323232"/>
</svg>
