<svg width="20" height="20" viewBox="0 0 20 20" fill="none" xmlns="http://www.w3.org/2000/svg">
<path d="M15 10C15 9.55797 15.1756 9.13405 15.4881 8.82149C15.8007 8.50893 16.2246 8.33333 16.6666 8.33333C17.1087 8.33333 17.5326 8.50893 17.8451 8.82149C18.1577 9.13405 18.3333 9.55797 18.3333 10C18.3333 10.442 18.1577 10.8659 17.8451 11.1785C17.5326 11.4911 17.1087 11.6667 16.6666 11.6667C16.2246 11.6667 15.8007 11.4911 15.4881 11.1785C15.1756 10.8659 15 10.442 15 10ZM15 10H4.99996M4.99996 10C4.99996 10.442 4.82436 10.8659 4.5118 11.1785C4.19924 11.4911 3.77532 11.6667 3.33329 11.6667C2.89127 11.6667 2.46734 11.4911 2.15478 11.1785C1.84222 10.8659 1.66663 10.442 1.66663 10C1.66663 9.55797 1.84222 9.13405 2.15478 8.82149C2.46734 8.50893 2.89127 8.33333 3.33329 8.33333C3.77532 8.33333 4.19924 8.50893 4.5118 8.82149C4.82436 9.13405 4.99996 9.55797 4.99996 10ZM16.6666 5C17.1087 5 17.5326 4.8244 17.8451 4.51184C18.1577 4.19928 18.3333 3.77536 18.3333 3.33333C18.3333 2.8913 18.1577 2.46738 17.8451 2.15482C17.5326 1.84226 17.1087 1.66666 16.6666 1.66666C16.2246 1.66666 15.8007 1.84226 15.4881 2.15482C15.1756 2.46738 15 2.8913 15 3.33333C15 3.77536 15.1756 4.19928 15.4881 4.51184C15.8007 4.8244 16.2246 5 16.6666 5ZM16.6666 18.3333C17.1087 18.3333 17.5326 18.1577 17.8451 17.8452C18.1577 17.5326 18.3333 17.1087 18.3333 16.6667C18.3333 16.2246 18.1577 15.8007 17.8451 15.4882C17.5326 15.1756 17.1087 15 16.6666 15C16.2246 15 15.8007 15.1756 15.4881 15.4882C15.1756 15.8007 15 16.2246 15 16.6667C15 17.1087 15.1756 17.5326 15.4881 17.8452C15.8007 18.1577 16.2246 18.3333 16.6666 18.3333Z" stroke="#323232" stroke-linecap="round" stroke-linejoin="round"/>
<path d="M15 3.33334H11.6666C9.99996 3.33334 9.16663 4.16667 9.16663 5.83334V14.1667C9.16663 15.8333 9.99996 16.6667 11.6666 16.6667H15" stroke="#323232" stroke-linecap="round" stroke-linejoin="round"/>
</svg>
