<svg width="12" height="20" viewBox="0 0 12 20" fill="none" xmlns="http://www.w3.org/2000/svg">
<path d="M6.45825 7.35L6.37492 7.83889C6.35825 7.94445 6.39992 8.04722 6.48603 8.11111C6.53325 8.14722 6.59159 8.16389 6.64992 8.16389C6.69436 8.16389 6.73881 8.15278 6.78047 8.13056L7.21936 7.9L7.65825 8.13056C7.7527 8.18056 7.86659 8.17222 7.94992 8.10833C8.03603 8.04722 8.0777 7.94167 8.06103 7.83611L7.9777 7.34722L8.33325 7.00278C8.37025 6.96657 8.39636 6.92071 8.40861 6.87041C8.42086 6.82011 8.41877 6.76738 8.40258 6.71821C8.38638 6.66904 8.35672 6.62539 8.31697 6.59222C8.27722 6.55905 8.22897 6.53769 8.1777 6.53056L7.68881 6.45833L7.46936 6.01389C7.37492 5.825 7.06381 5.825 6.97214 6.01389L6.7527 6.45833L6.26381 6.53056C6.21253 6.53769 6.16428 6.55905 6.12453 6.59222C6.08478 6.62539 6.05513 6.66904 6.03893 6.71821C6.02273 6.76738 6.02064 6.82011 6.03289 6.87041C6.04515 6.92071 6.07125 6.96657 6.10825 7.00278L6.46381 7.35H6.45825ZM6.97214 6.98889C7.06381 6.975 7.14159 6.91945 7.18047 6.83611L7.21381 6.76667L7.24714 6.83611C7.28881 6.91667 7.36659 6.975 7.45547 6.98889L7.53325 7L7.4777 7.05556C7.44555 7.08678 7.42143 7.12532 7.4074 7.16789C7.39337 7.21045 7.38985 7.25578 7.39714 7.3L7.41103 7.37778L7.34159 7.34167C7.30208 7.3197 7.25762 7.30818 7.21242 7.30818C7.16722 7.30818 7.12276 7.3197 7.08325 7.34167L7.01381 7.37778L7.0277 7.3C7.03588 7.25577 7.03279 7.21019 7.01871 7.16747C7.00463 7.12474 6.98002 7.08626 6.94714 7.05556L6.89159 7L6.96936 6.98889H6.97214Z" fill="#323232"/>
<path d="M3.01934 8.17782C3.01936 9.90263 4.42229 11.3056 6.14712 11.3056C7.31013 11.3056 8.37162 10.6647 8.91359 9.63439L8.91377 9.63405C8.94571 9.57217 8.95716 9.50174 8.94645 9.43293C8.93574 9.36412 8.90343 9.3005 8.85419 9.25126C8.80495 9.20202 8.74133 9.16972 8.67252 9.159C8.60372 9.1483 8.5333 9.15973 8.47143 9.19167L3.01934 8.17782ZM3.01934 8.17782C3.01848 7.60408 3.17588 7.04121 3.47421 6.55113C3.77255 6.06104 4.20027 5.66273 4.71033 5.39999L4.71041 5.39995C4.83773 5.33466 4.99186 5.35737 5.09358 5.45909L5.09416 5.45967L5.09416 5.45967C5.19251 5.5613 5.21518 5.71504 5.14994 5.84226L5.14955 5.84303L5.14954 5.84303C4.96185 6.19392 4.86378 6.59413 4.86378 6.99444C4.86378 8.3585 5.97195 9.46667 7.33601 9.46667C7.73637 9.46667 8.11739 9.37413 8.4714 9.19168L3.01934 8.17782ZM7.69275 10.105C7.25533 10.4571 6.7092 10.6505 6.14434 10.65V10.65C4.78029 10.65 3.67212 9.54183 3.67212 8.17778C3.67212 7.59386 3.87439 7.04389 4.22977 6.61139C4.21356 6.73939 4.20545 6.86831 4.20545 6.99722C4.20545 8.72206 5.60839 10.125 7.33323 10.125C7.45443 10.125 7.57456 10.1186 7.69275 10.105ZM6.14434 10.7C6.14341 10.7 6.14249 10.7 6.14156 10.7L6.14434 10.7Z" fill="#323232" stroke="#323232" stroke-width="0.1"/>
<path d="M8.64773 18.6278C8.76133 18.5722 8.83328 18.458 8.83328 18.3333V17.55H11.5611C11.7414 17.55 11.8888 17.4026 11.8888 17.2222V0.833333C11.8888 0.652941 11.7415 0.505555 11.5611 0.505555H11.5555H2.11661C1.31955 0.505555 0.672168 1.15294 0.672168 1.95V15.8333C0.672168 16.7804 1.44178 17.55 2.38883 17.55H3.73884V19.1667C3.73884 19.2917 3.81118 19.4062 3.92532 19.4616C4.04017 19.5174 4.17468 19.5009 4.27285 19.4224L4.76383 19.0306L5.25487 19.4224L5.25536 19.4228C5.31343 19.468 5.38518 19.4944 5.45828 19.4944C5.50597 19.4944 5.55581 19.485 5.60048 19.4612M8.64773 18.6278C8.60305 18.6517 8.5532 18.6611 8.5055 18.6611C8.43241 18.6611 8.36065 18.6346 8.30258 18.5895L8.30209 18.5891L7.81106 18.1973L7.32007 18.589C7.22191 18.6676 7.0874 18.6841 6.97255 18.6283C6.85841 18.5729 6.78606 18.4584 6.78606 18.3333V17.55H5.78606V19.1667C5.78606 19.2914 5.71409 19.4056 5.60048 19.4612M8.64773 18.6278C8.64742 18.628 8.64711 18.6282 8.64679 18.6283L8.62495 18.5833L8.64865 18.6274C8.64835 18.6275 8.64804 18.6277 8.64773 18.6278ZM5.60048 19.4612C5.60018 19.4613 5.59987 19.4615 5.59957 19.4616L5.57772 19.4167L5.60143 19.4607C5.60111 19.4609 5.6008 19.461 5.60048 19.4612ZM5.73606 17.55V17.5H5.78606L5.73606 17.55ZM8.78328 17.55V17.5H8.83328L8.78328 17.55ZM7.84244 3.9002L7.84251 3.90023C8.82878 4.22806 9.68669 4.85832 10.2944 5.70148C10.9021 6.54464 11.2286 7.55785 11.2277 8.59718V8.59722V14.1167H2.38883C1.98733 14.1167 1.61919 14.2568 1.32772 14.487V8.59722C1.32772 6.46322 2.68892 4.57674 4.713 3.9002C4.71301 3.9002 4.71301 3.9002 4.71302 3.9002L6.27772 3.37771L7.84244 3.9002ZM8.04907 3.28034L6.38006 2.72493C6.37999 2.7249 6.37992 2.72488 6.37984 2.72485C6.31275 2.70189 6.23992 2.70189 6.17283 2.72485C6.17276 2.72488 6.17269 2.7249 6.17261 2.72493L4.5036 3.28034L4.50359 3.28034C3.7932 3.51692 3.13747 3.89355 2.57517 4.38796C2.0656 4.83602 1.64215 5.37256 1.32495 5.97107V1.95C1.32495 1.51373 1.67756 1.16111 2.11383 1.16111H11.2249V5.97107C10.9077 5.37256 10.4843 4.83602 9.97472 4.38796C9.41312 3.89416 8.7583 3.51784 8.04892 3.28121L8.04907 3.28034ZM2.38883 16.8944C1.80256 16.8944 1.32772 16.4196 1.32772 15.8333C1.32772 15.2471 1.80256 14.7722 2.38883 14.7722H11.2277V15.5056H2.94439C2.764 15.5056 2.61661 15.6529 2.61661 15.8333C2.61661 16.0137 2.764 16.1611 2.94439 16.1611H3.73884V16.8944H2.38883ZM4.39439 18.4852V16.1611H5.12772V18.4852L4.96529 18.356C4.96515 18.3559 4.96502 18.3558 4.96488 18.3557C4.90518 18.3061 4.83262 18.2833 4.76106 18.2833C4.68949 18.2833 4.61694 18.3061 4.55724 18.3557C4.5571 18.3558 4.55696 18.3559 4.55683 18.356L4.39439 18.4852ZM5.78328 16.8944V16.1611H6.78328V16.8944H5.78328ZM7.43884 17.6519V16.1611H8.17217V17.6519L8.00973 17.5227C8.00959 17.5226 8.00946 17.5225 8.00932 17.5224C7.94961 17.4728 7.87706 17.45 7.8055 17.45C7.73394 17.45 7.66138 17.4728 7.60167 17.5224C7.60154 17.5225 7.60141 17.5226 7.60127 17.5227L7.43884 17.6519ZM8.82772 16.8944V16.1611H11.2277V16.8944H8.82772Z" fill="#323232" stroke="#323232" stroke-width="0.1"/>
</svg>
