<svg width="14" height="14" viewBox="0 0 14 14" fill="none" xmlns="http://www.w3.org/2000/svg">
<path fill-rule="evenodd" clip-rule="evenodd" d="M13.2972 3.6855C13.1635 3.73347 13.019 3.74248 12.8803 3.7115C12.7417 3.68052 12.6148 3.61082 12.5142 3.5105L11.9622 2.9575L7.76522 7.1545C7.69557 7.2242 7.61287 7.27948 7.52184 7.3172C7.43082 7.35492 7.33325 7.37434 7.23472 7.37434C7.13619 7.37434 7.03862 7.35492 6.94759 7.3172C6.85657 7.27948 6.77387 7.2242 6.70422 7.1545L5.10322 5.5535L1.28922 9.3675C1.22 9.4391 1.13721 9.4962 1.04569 9.53546C0.95417 9.57472 0.855746 9.59536 0.756161 9.59618C0.656577 9.597 0.557826 9.57798 0.465672 9.54022C0.373518 9.50247 0.289806 9.44674 0.21942 9.37629C0.149034 9.30584 0.0933837 9.22207 0.0557165 9.12988C0.0180493 9.03769 -0.00088054 8.93892 3.14518e-05 8.83934C0.000943444 8.73976 0.021679 8.64135 0.0610283 8.54987C0.100378 8.45838 0.157553 8.37565 0.229217 8.3065L4.57122 3.9615C4.64087 3.89181 4.72357 3.83652 4.81459 3.7988C4.90562 3.76108 5.00319 3.74166 5.10172 3.74166C5.20025 3.74166 5.29782 3.76108 5.38884 3.7988C5.47987 3.83652 5.56257 3.89181 5.63222 3.9615L7.23422 5.5635L10.9012 1.8965L10.3492 1.3445C10.2487 1.2441 10.1788 1.11722 10.1475 0.978627C10.1163 0.84003 10.1251 0.695418 10.1729 0.561623C10.2207 0.427829 10.3055 0.310356 10.4174 0.222878C10.5294 0.135401 10.6638 0.0815175 10.8052 0.0675C11.7182 -0.0225 12.2432 -0.0225 13.1222 0.0675C13.2938 0.0852372 13.454 0.161551 13.5758 0.283589C13.6977 0.405626 13.7737 0.56593 13.7912 0.7375C13.8822 1.6155 13.8812 2.1415 13.7912 3.0535C13.7772 3.1948 13.7233 3.32921 13.6358 3.44109C13.5484 3.55297 13.4309 3.63773 13.2972 3.6855ZM11.6742 5.1935C11.7875 5.08362 11.9326 5.0123 12.0888 4.98968C12.245 4.96705 12.4044 4.99429 12.5442 5.0675L13.5162 5.5775C13.642 5.64369 13.7464 5.74426 13.8172 5.86748C13.888 5.9907 13.9223 6.13151 13.9162 6.2735L13.6402 12.8615C13.6322 13.055 13.5497 13.2379 13.4099 13.3719C13.2701 13.5059 13.0839 13.5807 12.8902 13.5805H10.9182C10.8519 13.5805 10.7883 13.5542 10.7414 13.5073C10.6946 13.4604 10.6682 13.3968 10.6682 13.3305V6.2745C10.6682 6.24093 10.6748 6.20769 10.6879 6.17677C10.701 6.14584 10.7201 6.11786 10.7442 6.0945L11.6742 5.1935ZM9.41822 13.3305C9.41822 13.3968 9.39188 13.4604 9.34499 13.5073C9.29811 13.5542 9.23452 13.5805 9.16822 13.5805H5.41822C5.35191 13.5805 5.28832 13.5542 5.24144 13.5073C5.19456 13.4604 5.16822 13.3968 5.16822 13.3305V7.5165C5.16822 7.4965 5.18322 7.4805 5.20322 7.4825C5.36622 7.4905 5.52622 7.5525 5.65822 7.6675L7.30322 9.1115C7.35039 9.15301 7.41146 9.17524 7.47428 9.17376C7.5371 9.17228 7.59706 9.14719 7.64222 9.1035L8.99422 7.7915C9.02951 7.75729 9.07411 7.73424 9.12243 7.72524C9.17076 7.71624 9.22066 7.72168 9.26591 7.74089C9.31116 7.7601 9.34974 7.79222 9.37683 7.83324C9.40392 7.87425 9.41831 7.92234 9.41822 7.9715V13.3305ZM3.48922 8.8675L0.379217 12.0435C0.241575 12.1836 0.164379 12.3721 0.164217 12.5685V12.8305C0.164217 13.2445 0.500217 13.5805 0.914217 13.5805H3.66822C3.73452 13.5805 3.79811 13.5542 3.84499 13.5073C3.89188 13.4604 3.91822 13.3968 3.91822 13.3305V9.0425C3.91831 8.99274 3.90356 8.94409 3.87584 8.90277C3.84813 8.86145 3.80871 8.82934 3.76264 8.81054C3.71657 8.79175 3.66595 8.78713 3.61724 8.79728C3.56853 8.80742 3.52395 8.83187 3.48922 8.8675Z" fill="#5E9894"/>
</svg>
