<svg width="21" height="23" viewBox="0 0 21 23" fill="none" xmlns="http://www.w3.org/2000/svg">
<path fill-rule="evenodd" clip-rule="evenodd" d="M9.69504 0.714844H10.9637C11.4384 0.715814 11.9018 0.859548 12.2937 1.12736C12.6857 1.39518 12.9879 1.77469 13.1613 2.21657L13.7423 3.69241L15.5062 4.71029L17.0694 4.47241C17.5396 4.4016 18.0202 4.47413 18.4486 4.68052C18.877 4.88691 19.2332 5.2176 19.4709 5.62945L20.1036 6.72339C20.3419 7.13508 20.4505 7.60915 20.4149 8.08353C20.3794 8.55792 20.2015 9.01054 19.9045 9.38216L18.9174 10.6169V12.6591L19.8981 13.8938C20.1942 14.2658 20.3716 14.7184 20.4071 15.1926C20.4426 15.6667 20.3346 16.1406 20.0971 16.5526L19.466 17.6465C19.2282 18.0582 18.8719 18.3888 18.4436 18.5952C18.0153 18.8015 17.5347 18.8742 17.0645 18.8036L15.4997 18.5657L13.7342 19.5852L13.1565 21.0578C12.9833 21.5 12.6812 21.8798 12.2892 22.148C11.8973 22.4161 11.4338 22.5601 10.9589 22.5611H9.6918C9.21693 22.5601 8.75339 22.4161 8.36145 22.148C7.96952 21.8798 7.66734 21.5 7.49422 21.0578L6.91651 19.5852L5.151 18.5657L3.58616 18.8036C3.11613 18.8745 2.63562 18.8023 2.20726 18.5962C1.77891 18.3901 1.42257 18.0597 1.18469 17.6482L0.553569 16.5526C0.315218 16.1409 0.206699 15.6668 0.242214 15.1925C0.277728 14.7181 0.455621 14.2655 0.752614 13.8938L1.73974 12.6591V10.6169L0.752614 9.38216C0.45578 9.01052 0.277858 8.55803 0.242062 8.08373C0.206267 7.60944 0.31426 7.13538 0.551951 6.72339L1.18307 5.62945C1.42083 5.21731 1.77733 4.88644 2.20603 4.68003C2.63473 4.47361 3.11571 4.40126 3.58616 4.47241L5.14615 4.71029L6.91651 3.68432L7.49746 2.21657C7.67046 1.77444 7.97266 1.39468 8.36465 1.1268C8.75665 0.85893 9.22026 0.715372 9.69504 0.714844ZM13.5578 11.638C13.5578 13.7045 12.3943 14.868 10.3278 14.868C8.26127 14.868 7.09775 13.7045 7.09775 11.638C7.09775 9.5715 8.26127 8.40798 10.3278 8.40798C12.3943 8.40798 13.5578 9.5715 13.5578 11.638Z" fill="white"/>
</svg>
