<svg width="63" height="62" viewBox="0 0 63 62" fill="none" xmlns="http://www.w3.org/2000/svg">
<g filter="url(#filter0_ddii_274_9879)">
<ellipse cx="35.2579" cy="34.4996" rx="16.2579" ry="15.3424" fill="#F8F8F8"/>
</g>
<path d="M35 37.25C36.2426 37.25 37.25 36.2426 37.25 35C37.25 33.7574 36.2426 32.75 35 32.75C33.7574 32.75 32.75 33.7574 32.75 35C32.75 36.2426 33.7574 37.25 35 37.25Z" fill="#5E9894"/>
<path d="M43.4038 34.8088C42.7422 33.0974 41.5936 31.6175 40.1001 30.5518C38.6065 29.4861 36.8335 28.8814 35 28.8125C33.1665 28.8814 31.3935 29.4861 29.8999 30.5518C28.4064 31.6175 27.2578 33.0974 26.5963 34.8088C26.5516 34.9323 26.5516 35.0677 26.5963 35.1912C27.2578 36.9026 28.4064 38.3825 29.8999 39.4482C31.3935 40.5139 33.1665 41.1186 35 41.1875C36.8335 41.1186 38.6065 40.5139 40.1001 39.4482C41.5936 38.3825 42.7422 36.9026 43.4038 35.1912C43.4484 35.0677 43.4484 34.9323 43.4038 34.8088ZM35 38.6562C34.2769 38.6562 33.57 38.4418 32.9687 38.0401C32.3674 37.6383 31.8988 37.0673 31.6221 36.3992C31.3453 35.7311 31.2729 34.9959 31.414 34.2867C31.5551 33.5775 31.9033 32.926 32.4146 32.4146C32.926 31.9033 33.5775 31.5551 34.2867 31.414C34.9959 31.2729 35.7311 31.3453 36.3992 31.6221C37.0673 31.8988 37.6383 32.3674 38.0401 32.9687C38.4418 33.57 38.6563 34.2769 38.6563 35C38.6548 35.9692 38.2691 36.8984 37.5837 37.5837C36.8984 38.2691 35.9692 38.6548 35 38.6562Z" fill="#5E9894"/>
<defs>
<filter id="filter0_ddii_274_9879" x="0.289733" y="0.446959" width="62.4523" height="61.3694" filterUnits="userSpaceOnUse" color-interpolation-filters="sRGB">
<feFlood flood-opacity="0" result="BackgroundImageFix"/>
<feColorMatrix in="SourceAlpha" type="matrix" values="0 0 0 0 0 0 0 0 0 0 0 0 0 0 0 0 0 0 127 0" result="hardAlpha"/>
<feOffset dx="3.74205" dy="4.49046"/>
<feGaussianBlur stdDeviation="3.74205"/>
<feColorMatrix type="matrix" values="0 0 0 0 0 0 0 0 0 0 0 0 0 0 0 0 0 0 0.2 0"/>
<feBlend mode="normal" in2="BackgroundImageFix" result="effect1_dropShadow_274_9879"/>
<feColorMatrix in="SourceAlpha" type="matrix" values="0 0 0 0 0 0 0 0 0 0 0 0 0 0 0 0 0 0 127 0" result="hardAlpha"/>
<feOffset dx="-7.48411" dy="-7.48411"/>
<feGaussianBlur stdDeviation="5.61308"/>
<feColorMatrix type="matrix" values="0 0 0 0 1 0 0 0 0 1 0 0 0 0 1 0 0 0 1 0"/>
<feBlend mode="normal" in2="effect1_dropShadow_274_9879" result="effect2_dropShadow_274_9879"/>
<feBlend mode="normal" in="SourceGraphic" in2="effect2_dropShadow_274_9879" result="shape"/>
<feColorMatrix in="SourceAlpha" type="matrix" values="0 0 0 0 0 0 0 0 0 0 0 0 0 0 0 0 0 0 127 0" result="hardAlpha"/>
<feOffset dx="-7.48411" dy="-7.48411"/>
<feGaussianBlur stdDeviation="7.48411"/>
<feComposite in2="hardAlpha" operator="arithmetic" k2="-1" k3="1"/>
<feColorMatrix type="matrix" values="0 0 0 0 1 0 0 0 0 1 0 0 0 0 1 0 0 0 1 0"/>
<feBlend mode="soft-light" in2="shape" result="effect3_innerShadow_274_9879"/>
<feColorMatrix in="SourceAlpha" type="matrix" values="0 0 0 0 0 0 0 0 0 0 0 0 0 0 0 0 0 0 127 0" result="hardAlpha"/>
<feOffset dx="7.48411" dy="7.48411"/>
<feGaussianBlur stdDeviation="3.74205"/>
<feComposite in2="hardAlpha" operator="arithmetic" k2="-1" k3="1"/>
<feColorMatrix type="matrix" values="0 0 0 0 0 0 0 0 0 0 0 0 0 0 0 0 0 0 0.05 0"/>
<feBlend mode="normal" in2="effect3_innerShadow_274_9879" result="effect4_innerShadow_274_9879"/>
</filter>
</defs>
</svg>
