<svg width="19" height="18" viewBox="0 0 19 18" fill="none" xmlns="http://www.w3.org/2000/svg">
<path d="M3.23814 14.25L2.54064 13.9725C2.4908 14.0979 2.47572 14.2344 2.49698 14.3677C2.51824 14.5009 2.57506 14.626 2.66144 14.7296C2.74783 14.8333 2.86058 14.9117 2.98782 14.9567C3.11505 15.0016 3.25206 15.0114 3.38439 14.985L3.23814 14.25ZM6.76764 13.548L7.12314 12.8873L6.88539 12.7598L6.62139 12.8123L6.76764 13.548ZM4.45614 11.1878L5.15364 11.4653L5.27589 11.1548L5.12889 10.8555L4.45614 11.1878ZM14.4881 9C14.4881 11.4345 12.3484 13.5 9.59064 13.5V15C13.0714 15 15.9881 12.3645 15.9881 9H14.4881ZM4.69389 9C4.69389 6.5655 6.83439 4.5 9.59139 4.5V3C6.11064 3 3.19314 5.6355 3.19314 9H4.69389ZM9.59139 4.5C12.3484 4.5 14.4881 6.5655 14.4881 9H15.9881C15.9881 5.6355 13.0721 3 9.59139 3V4.5ZM9.59064 13.5C8.68689 13.5 7.84539 13.275 7.12314 12.8873L6.41214 14.208C7.39002 14.731 8.48168 15.0032 9.59064 15V13.5ZM3.38439 14.985L6.91389 14.283L6.62139 12.8123L3.09189 13.5142L3.38439 14.9858V14.985ZM5.12889 10.8555C4.84245 10.2789 4.69406 9.64383 4.69389 9H3.19314C3.19314 9.9 3.40464 10.7535 3.78264 11.52L5.12889 10.8555ZM3.75939 10.9103L2.54064 13.9733L3.93414 14.5268L5.15214 11.4645L3.75864 10.9103H3.75939Z" fill="#5E5E5E"/>
<path d="M6.98816 9.75C7.40237 9.75 7.73816 9.41421 7.73816 9C7.73816 8.58579 7.40237 8.25 6.98816 8.25C6.57395 8.25 6.23816 8.58579 6.23816 9C6.23816 9.41421 6.57395 9.75 6.98816 9.75Z" fill="#5E5E5E"/>
<path d="M9.61316 9.75C10.0274 9.75 10.3632 9.41421 10.3632 9C10.3632 8.58579 10.0274 8.25 9.61316 8.25C9.19895 8.25 8.86316 8.58579 8.86316 9C8.86316 9.41421 9.19895 9.75 9.61316 9.75Z" fill="#5E5E5E"/>
<path d="M12.2382 9.75C12.6524 9.75 12.9882 9.41421 12.9882 9C12.9882 8.58579 12.6524 8.25 12.2382 8.25C11.8239 8.25 11.4882 8.58579 11.4882 9C11.4882 9.41421 11.8239 9.75 12.2382 9.75Z" fill="#5E5E5E"/>
</svg>
