<svg width="22" height="23" viewBox="0 0 22 23" fill="none" xmlns="http://www.w3.org/2000/svg">
<path d="M10.7143 14.238C11.6615 14.238 12.5699 13.8617 13.2397 13.192C13.9095 12.5222 14.2857 11.6138 14.2857 10.6666V6.20229C14.2857 5.25509 13.9095 4.34668 13.2397 3.67691C12.5699 3.00713 11.6615 2.63086 10.7143 2.63086C9.76711 2.63086 8.8587 3.00713 8.18893 3.67691C7.51916 4.34668 7.14288 5.25509 7.14288 6.20229V10.6666C7.14288 11.6138 7.51916 12.5222 8.18893 13.192C8.8587 13.8617 9.76711 14.238 10.7143 14.238Z" fill="#5E5E5E"/>
<path d="M16.9643 10.6668C16.9643 10.43 16.8702 10.2029 16.7028 10.0354C16.5353 9.86799 16.3082 9.77393 16.0714 9.77393C15.8346 9.77393 15.6075 9.86799 15.4401 10.0354C15.2726 10.2029 15.1786 10.43 15.1786 10.6668C15.1786 11.8508 14.7082 12.9863 13.871 13.8235C13.0338 14.6607 11.8983 15.1311 10.7143 15.1311C9.53029 15.1311 8.39478 14.6607 7.55757 13.8235C6.72035 12.9863 6.25001 11.8508 6.25001 10.6668C6.25001 10.43 6.15594 10.2029 5.9885 10.0354C5.82105 9.86799 5.59395 9.77393 5.35715 9.77393C5.12035 9.77393 4.89325 9.86799 4.72581 10.0354C4.55836 10.2029 4.46429 10.43 4.46429 10.6668C4.46605 12.1684 5.00841 13.6192 5.99213 14.7538C6.97586 15.8884 8.33519 16.6308 9.82144 16.8454V18.7025H7.93751C7.72676 18.7025 7.52464 18.7862 7.37561 18.9352C7.22659 19.0843 7.14287 19.2864 7.14287 19.4971V19.6936C7.14287 19.9043 7.22659 20.1064 7.37561 20.2555C7.52464 20.4045 7.72676 20.4882 7.93751 20.4882H13.4911C13.7018 20.4882 13.904 20.4045 14.053 20.2555C14.202 20.1064 14.2857 19.9043 14.2857 19.6936V19.4971C14.2857 19.2864 14.202 19.0843 14.053 18.9352C13.904 18.7862 13.7018 18.7025 13.4911 18.7025H11.6072V16.8454C13.0934 16.6308 14.4527 15.8884 15.4365 14.7538C16.4202 13.6192 16.9625 12.1684 16.9643 10.6668Z" fill="#5E5E5E"/>
</svg>
