<svg width="17" height="18" viewBox="0 0 17 18" fill="none" xmlns="http://www.w3.org/2000/svg">
<g clip-path="url(#clip0_838_797)">
<path d="M2.47916 8.22321C3.38202 8.22321 4.11607 7.48916 4.11607 6.58631C4.11607 5.68345 3.38202 4.9494 2.47916 4.9494C1.57631 4.9494 0.842256 5.68345 0.842256 6.58631C0.842256 7.48916 1.57631 8.22321 2.47916 8.22321ZM13.9375 8.22321C14.8403 8.22321 15.5744 7.48916 15.5744 6.58631C15.5744 5.68345 14.8403 4.9494 13.9375 4.9494C13.0346 4.9494 12.3006 5.68345 12.3006 6.58631C12.3006 7.48916 13.0346 8.22321 13.9375 8.22321ZM14.7559 9.04167H13.119C12.6689 9.04167 12.2622 9.22326 11.9655 9.51739C12.9963 10.0826 13.7278 11.1031 13.8863 12.3155H15.5744C16.0271 12.3155 16.3929 11.9497 16.3929 11.497V10.6786C16.3929 9.77572 15.6588 9.04167 14.7559 9.04167ZM8.20833 9.04167C9.79152 9.04167 11.0729 7.76028 11.0729 6.17708C11.0729 4.59389 9.79152 3.3125 8.20833 3.3125C6.62513 3.3125 5.34374 4.59389 5.34374 6.17708C5.34374 7.76028 6.62513 9.04167 8.20833 9.04167ZM10.1726 9.86012H9.96033C9.42833 10.1159 8.83751 10.2693 8.20833 10.2693C7.57914 10.2693 6.99088 10.1159 6.45633 9.86012H6.24404C4.61737 9.86012 3.29761 11.1799 3.29761 12.8065V13.5432C3.29761 14.2209 3.84751 14.7708 4.52529 14.7708H11.8914C12.5691 14.7708 13.119 14.2209 13.119 13.5432V12.8065C13.119 11.1799 11.7993 9.86012 10.1726 9.86012ZM4.45112 9.51739C4.15443 9.22326 3.74776 9.04167 3.29761 9.04167H1.66071C0.757853 9.04167 0.0238037 9.77572 0.0238037 10.6786V11.497C0.0238037 11.9497 0.38955 12.3155 0.842256 12.3155H2.52776C2.68889 11.1031 3.42038 10.0826 4.45112 9.51739Z" fill="#5E5E5E"/>
</g>
<defs>
<clipPath id="clip0_838_797">
<rect width="16.369" height="16.369" fill="white" transform="translate(0.0238037 0.856934)"/>
</clipPath>
</defs>
</svg>
