<svg width="18" height="18" viewBox="0 0 18 18" fill="none" xmlns="http://www.w3.org/2000/svg">
<path d="M5.25133 8.35959C5.55719 8.30084 5.87481 8.34688 6.14902 8.48971C6.42323 8.63255 6.63673 8.86315 6.75243 9.14148L7.21156 10.2432V5.2203C7.21156 4.99828 7.30334 4.78535 7.46673 4.62835C7.63011 4.47136 7.85171 4.38316 8.08276 4.38316C8.31382 4.38316 8.53542 4.47136 8.6988 4.62835C8.86219 4.78535 8.95397 4.99828 8.95397 5.2203V3.96459C8.95397 3.74256 9.04576 3.52963 9.20915 3.37264C9.37253 3.21564 9.59412 3.12744 9.82518 3.12744C10.0562 3.12744 10.2778 3.21564 10.4412 3.37264C10.6046 3.52963 10.6964 3.74256 10.6964 3.96459V4.80173C10.6964 4.5797 10.7882 4.36677 10.9516 4.20978C11.1149 4.05278 11.3365 3.96459 11.5676 3.96459C11.7987 3.96459 12.0203 4.05278 12.1836 4.20978C12.347 4.36677 12.4388 4.5797 12.4388 4.80173V6.05744C12.4388 5.83542 12.5306 5.62249 12.694 5.46549C12.8574 5.3085 13.079 5.2203 13.31 5.2203C13.5411 5.2203 13.7627 5.3085 13.9261 5.46549C14.0894 5.62249 14.1812 5.83542 14.1812 6.05744V12.7546C14.1812 13.6427 13.8141 14.4944 13.1605 15.1224C12.507 15.7504 11.6206 16.1032 10.6964 16.1032C8.64905 16.1032 6.86307 14.7637 6.36648 12.8551L6.34035 12.7546L4.65891 9.52322C4.60067 9.41111 4.57011 9.28762 4.56959 9.16232C4.56907 9.03702 4.5986 8.9133 4.6559 8.80075C4.7132 8.6882 4.79673 8.58985 4.89999 8.51334C5.00326 8.43683 5.12348 8.38422 5.25133 8.35959ZM8.95397 4.38316V9.40602V4.38316ZM10.6964 4.38316V8.56888V4.38316ZM12.4388 6.05744V9.40602V6.05744Z" fill="#5E5E5E"/>
<path d="M12.4388 6.05744V4.80173C12.4388 4.5797 12.347 4.36677 12.1836 4.20978C12.0203 4.05278 11.7987 3.96459 11.5676 3.96459C11.3365 3.96459 11.1149 4.05278 10.9516 4.20978C10.7882 4.36677 10.6964 4.5797 10.6964 4.80173V3.96459C10.6964 3.74256 10.6046 3.52963 10.4412 3.37264C10.2778 3.21564 10.0562 3.12744 9.82518 3.12744C9.59412 3.12744 9.37253 3.21564 9.20915 3.37264C9.04576 3.52963 8.95397 3.74256 8.95397 3.96459V5.2203C8.95397 4.99828 8.86219 4.78535 8.6988 4.62835C8.53542 4.47136 8.31382 4.38316 8.08276 4.38316C7.85171 4.38316 7.63011 4.47136 7.46673 4.62835C7.30334 4.78535 7.21155 4.99828 7.21155 5.2203V10.2432L6.75243 9.14148C6.63673 8.86315 6.42323 8.63255 6.14902 8.48971C5.87481 8.34688 5.55719 8.30084 5.25133 8.35959C5.12348 8.38422 5.00326 8.43683 4.89999 8.51334C4.79673 8.58985 4.7132 8.6882 4.6559 8.80075C4.5986 8.9133 4.56907 9.03702 4.56959 9.16232C4.57011 9.28762 4.60067 9.41111 4.65891 9.52322L6.34035 12.7546L6.36648 12.8551C6.86307 14.7637 8.64905 16.1032 10.6964 16.1032C11.6206 16.1032 12.507 15.7504 13.1605 15.1224C13.8141 14.4944 14.1812 13.6427 14.1812 12.7546V6.05744C14.1812 5.83542 14.0894 5.62249 13.9261 5.46549C13.7627 5.3085 13.5411 5.2203 13.31 5.2203C13.079 5.2203 12.8574 5.3085 12.694 5.46549C12.5306 5.62249 12.4388 5.83542 12.4388 6.05744ZM12.4388 6.05744V9.40602M8.95397 4.38316V9.40602M10.6964 4.38316V8.56888" stroke="white" stroke-width="0.144175" stroke-linecap="round" stroke-linejoin="round"/>
</svg>
