<svg width="17" height="18" viewBox="0 0 17 18" fill="none" xmlns="http://www.w3.org/2000/svg">
<g clip-path="url(#clip0_838_822)">
<path d="M8.66071 15.862C7.71721 15.862 6.83056 15.6828 6.00074 15.3245C5.17092 14.9662 4.44909 14.4804 3.83525 13.867C3.22141 13.2532 2.73557 12.5313 2.37772 11.7015C2.01988 10.8717 1.84073 9.98504 1.84027 9.04154C1.84027 8.09805 2.01942 7.21139 2.37772 6.38157C2.73602 5.55175 3.22186 4.82993 3.83525 4.21609C4.44909 3.60225 5.17092 3.1164 6.00074 2.75856C6.83056 2.40071 7.71721 2.22156 8.66071 2.22111C9.14951 2.22111 9.62125 2.26953 10.0759 2.36638C10.5306 2.46323 10.9683 2.60237 11.3889 2.78379V4.31839C11.3889 4.68215 11.5169 4.99202 11.7729 5.24802C12.0289 5.50401 12.3385 5.63178 12.7018 5.63133H12.753V6.0235C12.753 6.28495 12.8496 6.5123 13.0428 6.70554C13.2361 6.89879 13.4634 6.99541 13.7249 6.99541H15.1742C15.2765 7.32507 15.3534 7.65768 15.4048 7.99324C15.4561 8.32881 15.4816 8.67824 15.4811 9.04154C15.4811 9.98504 15.302 10.8717 14.9437 11.7015C14.5854 12.5313 14.0996 13.2532 13.4862 13.867C12.8723 14.4808 12.1505 14.9669 11.3207 15.3252C10.4909 15.6835 9.6042 15.8624 8.66071 15.862ZM8.66071 12.7928C9.32002 12.7928 9.92817 12.6336 10.4852 12.3154C11.0422 11.9971 11.4912 11.5651 11.8322 11.0195C11.9004 10.8831 11.8947 10.7467 11.8152 10.6102C11.7356 10.4738 11.6162 10.4056 11.4571 10.4056H5.86433C5.70518 10.4056 5.58583 10.4738 5.50626 10.6102C5.42668 10.7467 5.421 10.8831 5.4892 11.0195C5.83023 11.5651 6.28219 11.9971 6.84511 12.3154C7.40802 12.6336 8.01322 12.7928 8.66071 12.7928ZM6.27355 8.3595C6.55774 8.3595 6.79941 8.25992 6.99857 8.06077C7.19772 7.86161 7.29707 7.62017 7.29662 7.33644C7.29662 7.05225 7.19704 6.81058 6.99788 6.61142C6.79873 6.41227 6.55728 6.31292 6.27355 6.31337C5.98937 6.31337 5.7477 6.41295 5.54854 6.6121C5.34939 6.81126 5.25003 7.05271 5.25049 7.33644C5.25049 7.62062 5.35007 7.86229 5.54922 8.06145C5.74838 8.2606 5.98982 8.35996 6.27355 8.3595ZM11.0479 8.3595C11.332 8.3595 11.5737 8.25992 11.7729 8.06077C11.972 7.86161 12.0714 7.62017 12.0709 7.33644C12.0709 7.05225 11.9713 6.81058 11.7722 6.61142C11.573 6.41227 11.3316 6.31292 11.0479 6.31337C10.7637 6.31337 10.522 6.41295 10.3228 6.6121C10.1237 6.81126 10.0243 7.05271 10.0248 7.33644C10.0248 7.62062 10.1244 7.86229 10.3235 8.06145C10.5227 8.2606 10.7641 8.35996 11.0479 8.3595ZM14.1171 4.26724H13.435C13.2418 4.26724 13.0797 4.20176 12.9487 4.07081C12.8178 3.93986 12.7525 3.77799 12.753 3.5852C12.753 3.39195 12.8184 3.22985 12.9494 3.0989C13.0803 2.96795 13.2422 2.9027 13.435 2.90315H14.1171V2.22111C14.1171 2.02786 14.1825 1.86576 14.3135 1.73481C14.4444 1.60386 14.6063 1.53861 14.7991 1.53906C14.9923 1.53906 15.1544 1.60454 15.2854 1.73549C15.4163 1.86645 15.4816 2.02832 15.4811 2.22111V2.90315H16.1632C16.3564 2.90315 16.5185 2.96863 16.6495 3.09958C16.7804 3.23053 16.8457 3.3924 16.8452 3.5852C16.8452 3.77844 16.7798 3.94054 16.6488 4.07149C16.5178 4.20245 16.356 4.26769 16.1632 4.26724H15.4811V4.94928C15.4811 5.14253 15.4157 5.30463 15.2847 5.43558C15.1538 5.56653 14.9919 5.63178 14.7991 5.63133C14.6059 5.63133 14.4438 5.56585 14.3128 5.4349C14.1819 5.30395 14.1166 5.14207 14.1171 4.94928V4.26724Z" fill="#5E5E5E"/>
</g>
<defs>
<clipPath id="clip0_838_822">
<rect width="16.369" height="16.369" fill="white" transform="translate(0.476196 0.856934)"/>
</clipPath>
</defs>
</svg>
