<svg width="17" height="18" viewBox="0 0 17 18" fill="none" xmlns="http://www.w3.org/2000/svg">
<path d="M8.27979 3.9263C11.1017 3.9263 13.3951 6.21967 13.3951 9.04163C13.3951 11.8636 11.1017 14.157 8.27979 14.157C5.45783 14.157 3.16446 11.8636 3.16446 9.04163C3.16446 6.21967 5.45783 3.9263 8.27979 3.9263ZM8.27979 2.22119C4.5115 2.22119 1.45935 5.27334 1.45935 9.04163C1.45935 12.8099 4.5115 15.8621 8.27979 15.8621C12.0481 15.8621 15.1002 12.8099 15.1002 9.04163C15.1002 5.27334 12.0481 2.22119 8.27979 2.22119Z" fill="#5E5E5E"/>
<path d="M8.27979 12.4518C10.1632 12.4518 11.69 10.925 11.69 9.04157C11.69 7.15815 10.1632 5.63135 8.27979 5.63135C6.39637 5.63135 4.86957 7.15815 4.86957 9.04157C4.86957 10.925 6.39637 12.4518 8.27979 12.4518Z" fill="#EF043E"/>
</svg>
