<svg width="17" height="18" viewBox="0 0 17 18" fill="none" xmlns="http://www.w3.org/2000/svg">
<g clip-path="url(#clip0_838_782)">
<path d="M13.7838 13.1336C14.5341 13.1336 15.1479 12.5197 15.1479 11.7695V4.94905C15.1479 4.1988 14.5341 3.58496 13.7838 3.58496H2.87112C2.12087 3.58496 1.50703 4.1988 1.50703 4.94905V11.7695C1.50703 12.1313 1.65075 12.4782 1.90656 12.734C2.16238 12.9899 2.50934 13.1336 2.87112 13.1336H0.824988C0.449864 13.1336 0.142944 13.4405 0.142944 13.8156C0.142944 14.1907 0.449864 14.4977 0.824988 14.4977H15.8299C16.2051 14.4977 16.512 14.1907 16.512 13.8156C16.512 13.4405 16.2051 13.1336 15.8299 13.1336H13.7838ZM9.00951 10.726V9.23228C7.11343 9.23228 5.86529 9.81202 4.91725 11.0874C5.29919 9.26638 6.35636 7.45215 9.00951 7.08384V5.63109L11.4717 7.92276C11.6149 8.05917 11.6149 8.28424 11.4717 8.42065L9.00951 10.726Z" fill="#5E5E5E"/>
</g>
<defs>
<clipPath id="clip0_838_782">
<rect width="16.369" height="16.369" fill="white" transform="translate(0.142944 0.856934)"/>
</clipPath>
</defs>
</svg>
