<svg width="17" height="18" viewBox="0 0 17 18" fill="none" xmlns="http://www.w3.org/2000/svg">
<path d="M12.6102 12.2814C12.5011 12.2814 12.3988 12.2473 12.3033 12.1791C12.0782 12.0085 12.0305 11.688 12.201 11.4629C13.2718 10.0374 13.2718 8.04587 12.201 6.6204C12.0305 6.39532 12.0782 6.07476 12.3033 5.90425C12.5284 5.73374 12.8489 5.78148 13.0195 6.00656C14.3563 7.79351 14.3563 10.2898 13.0195 12.0767C12.9171 12.2132 12.7671 12.2814 12.6102 12.2814Z" fill="#5E5E5E"/>
<path d="M13.8583 13.9865C13.7491 13.9865 13.6468 13.9524 13.5514 13.8842C13.3263 13.7137 13.2785 13.3931 13.4491 13.168C15.2701 10.74 15.2701 7.34339 13.4491 4.91532C13.2785 4.69024 13.3263 4.36968 13.5514 4.19917C13.7764 4.02866 14.097 4.0764 14.2675 4.30148C16.3614 7.09104 16.3614 10.9923 14.2675 13.7819C14.172 13.9183 14.0151 13.9865 13.8583 13.9865Z" fill="#5E5E5E"/>
<path d="M9.89561 3.43503C9.13172 3.01217 8.1564 3.12129 7.16062 3.74195L5.16905 4.99009C5.03264 5.07194 4.87577 5.11968 4.7189 5.11968H4.0846H3.74358C2.09303 5.11968 1.18591 6.0268 1.18591 7.67735V10.4055C1.18591 12.0561 2.09303 12.9632 3.74358 12.9632H4.0846H4.7189C4.87577 12.9632 5.03264 13.0109 5.16905 13.0928L7.16062 14.3409C7.76081 14.716 8.34737 14.9002 8.89301 14.9002C9.24767 14.9002 9.58869 14.8183 9.89561 14.6478C10.6527 14.225 11.0755 13.3451 11.0755 12.172V5.91085C11.0755 4.73774 10.6527 3.8579 9.89561 3.43503Z" fill="#5E5E5E"/>
</svg>
