<svg width="20" height="15" viewBox="0 0 20 15" fill="none" xmlns="http://www.w3.org/2000/svg">
<path d="M4.1161 0.193359C3.2281 0.193359 2.37646 0.546117 1.74855 1.17403C1.12064 1.80194 0.767883 2.65357 0.767883 3.54157V11.5773C0.767883 12.4653 1.12064 13.3169 1.74855 13.9448C2.37646 14.5727 3.2281 14.9255 4.1161 14.9255H10.8125C11.7005 14.9255 12.5522 14.5727 13.1801 13.9448C13.808 13.3169 14.1607 12.4653 14.1607 11.5773V3.54157C14.1607 2.65357 13.808 1.80194 13.1801 1.17403C12.5522 0.546117 11.7005 0.193359 10.8125 0.193359H4.1161ZM18.425 2.34961L15.5 4.73756V10.3826L18.425 12.7666C18.5233 12.8467 18.6424 12.8973 18.7683 12.9125C18.8943 12.9276 19.0219 12.9067 19.1364 12.8521C19.2509 12.7975 19.3475 12.7115 19.4151 12.6042C19.4826 12.4968 19.5183 12.3724 19.5179 12.2456V2.87059C19.5178 2.74397 19.4817 2.61999 19.414 2.51301C19.3463 2.40603 19.2496 2.32045 19.1352 2.26619C19.0208 2.21194 18.8933 2.19123 18.7677 2.20646C18.642 2.2217 18.5232 2.27227 18.425 2.35229V2.34961Z" fill="#5E5E5E"/>
</svg>
