<svg width="19" height="18" viewBox="0 0 19 18" fill="none" xmlns="http://www.w3.org/2000/svg">
<path d="M15.644 3.11476L15.743 3.20656L15.8348 3.30556C16.1159 3.63707 16.2623 4.06201 16.2452 4.49631C16.228 4.93062 16.0485 5.34267 15.7421 5.65096L12.4994 8.90626C12.3004 9.10636 12.0549 9.25388 11.7848 9.33556L10.0208 9.86746C9.92539 9.89594 9.82534 9.90533 9.72633 9.89509C9.62731 9.88485 9.5313 9.85518 9.44377 9.80777C9.35624 9.76037 9.27892 9.69617 9.21624 9.61885C9.15356 9.54153 9.10674 9.4526 9.07847 9.35716C9.03432 9.20926 9.03589 9.05146 9.08297 8.90446L9.64187 7.15666C9.72557 6.89656 9.86867 6.66166 10.0604 6.46816L13.3112 3.20566C13.6167 2.89862 14.0271 2.71866 14.4599 2.70196C14.8927 2.68526 15.3157 2.83217 15.644 3.11476ZM11.648 3.59986H4.09607C3.49933 3.59986 2.92704 3.83691 2.50508 4.25887C2.08312 4.68083 1.84607 5.25312 1.84607 5.84986V7.88746C2.33498 7.43217 2.85199 7.00804 3.39407 6.61756C3.97637 6.20536 4.60187 5.84356 5.17517 5.69416C5.46497 5.61766 5.77097 5.58796 6.06347 5.65636C6.36947 5.72836 6.63317 5.90116 6.82487 6.18016C7.24157 6.78676 6.93827 7.44376 6.65027 7.91176C6.49997 8.15656 6.31367 8.41216 6.13187 8.66236L6.11117 8.68936C5.92127 8.95216 5.73227 9.21316 5.56307 9.48226C5.42087 9.73876 5.38307 10.0421 5.44607 10.2608C5.47091 10.3534 5.52295 10.4365 5.59547 10.4993C5.66117 10.5542 5.76647 10.6064 5.93657 10.6217C6.23357 10.6487 6.61967 10.547 7.09397 10.3769C7.15022 10.3536 7.21059 10.3421 7.27144 10.3428C7.33229 10.3436 7.39235 10.3567 7.44799 10.3814C7.50363 10.406 7.55369 10.4417 7.59515 10.4862C7.63661 10.5308 7.6686 10.5833 7.68919 10.6405C7.70978 10.6978 7.71854 10.7586 7.71495 10.8194C7.71135 10.8801 7.69547 10.9395 7.66827 10.994C7.64106 11.0484 7.6031 11.0967 7.55668 11.1361C7.51025 11.1754 7.45633 11.205 7.39817 11.2229C6.93017 11.3921 6.37217 11.5649 5.85557 11.5181C5.55026 11.4974 5.25869 11.3833 5.02037 11.1914C4.80994 11.0144 4.65755 10.7783 4.58297 10.5137C4.43897 10.0223 4.53797 9.46516 4.78457 9.03046L4.78907 9.02236L4.79447 9.01336C4.98347 8.71006 5.19317 8.42206 5.38397 8.16016L5.39297 8.14756C5.58467 7.88566 5.75207 7.65526 5.88347 7.44106C6.17687 6.96406 6.15167 6.78946 6.08327 6.68956C6.05812 6.64967 6.02527 6.61519 5.98664 6.58814C5.948 6.5611 5.90436 6.54203 5.85827 6.53206C5.75657 6.50866 5.60807 6.51046 5.40377 6.56446C4.98977 6.67246 4.46957 6.95866 3.91517 7.35196C3.14747 7.89556 2.38427 8.59396 1.84607 9.13846V12.1499C1.84607 12.7466 2.08312 13.3189 2.50508 13.7409C2.92704 14.1628 3.49933 14.3999 4.09607 14.3999H13.9961C14.5928 14.3999 15.1651 14.1628 15.5871 13.7409C16.009 13.3189 16.2461 12.7466 16.2461 12.1499V6.42046L13.1366 9.54166C12.8324 9.84766 12.4571 10.0727 12.0449 10.1969L10.2809 10.7288C10.0721 10.7916 9.85297 10.8126 9.63607 10.7905C9.41916 10.7685 9.20874 10.7039 9.01685 10.6004C8.82497 10.4969 8.6554 10.3565 8.51787 10.1873C8.38033 10.0182 8.27754 9.82353 8.21537 9.61456C8.11933 9.29287 8.12278 8.94966 8.22527 8.62996L8.78507 6.88216C8.91107 6.48616 9.12977 6.12706 9.42317 5.83366L11.648 3.59986Z" fill="#5E5E5E"/>
</svg>
